<?xml version="1.0" encoding="UTF-8"?><svg id="Layer_2" xmlns="http://www.w3.org/2000/svg" viewBox="0 0 50.56 50.55"><defs><style>.cls-1{fill:#e30613;}.cls-2{fill:#3c3c3b;}</style></defs><g id="Layer_1-2"><path class="cls-2" d="m25.28,30.6c-2.77,0-5.01-2.24-5.01-5.01s2.24-5.01,5.01-5.01,5.01,2.24,5.01,5.01-2.24,5.01-5.01,5.01m16.17-7.04l-.28-1.58c-.08-.45-.43-.79-.88-.86l-3.95-.61c-.32-.69-.7-1.34-1.13-1.95l1.45-3.72c.16-.42.04-.9-.31-1.19l-1.22-1.03c-.35-.29-.84-.33-1.23-.09l-3.41,2.07c-.68-.32-1.39-.58-2.13-.78l-1.28-3.77c-.15-.43-.55-.72-1-.72h-1.6c-.45,0-.86.29-1,.72l-1.28,3.77c-.74.19-1.45.45-2.13.78l-3.41-2.07c-.39-.24-.88-.2-1.23.09l-1.23,1.03c-.35.29-.47.77-.31,1.19l1.45,3.72c-.43.61-.81,1.27-1.13,1.95l-3.95.61c-.45.07-.8.42-.88.86l-.28,1.57c-.08.45.14.89.53,1.11l3.51,1.93c.06.76.19,1.5.39,2.21l-2.64,3.01c-.3.34-.35.83-.12,1.23l.8,1.39c.23.39.68.6,1.12.51l3.93-.78c.53.53,1.1,1.01,1.72,1.44l-.09,4c0,.45.27.86.7,1.02l1.5.55c.43.16.9.02,1.19-.33l2.51-3.13c.37.03.74.05,1.12.05s.75-.02,1.12-.05l2.51,3.12c.28.35.76.49,1.19.33l1.5-.55c.43-.16.71-.56.7-1.02l-.09-4c.62-.43,1.19-.91,1.72-1.44l3.93.78c.44.09.9-.12,1.12-.51l.8-1.39c.23-.39.18-.89-.12-1.23l-2.64-3.01c.2-.71.33-1.45.39-2.21l3.51-1.93c.4-.22.61-.67.53-1.11"/><path class="cls-1" d="m25.28,0C11.34,0,0,11.34,0,25.27s11.34,25.27,25.28,25.27,25.27-11.34,25.27-25.27S39.22,0,25.28,0ZM3.36,25.27C3.36,13.19,13.19,3.36,25.28,3.36c5.43,0,10.41,1.99,14.24,5.29l-30.87,30.88c-3.31-3.83-5.3-8.81-5.3-14.25Zm21.92,21.92c-5.44,0-10.42-1.99-14.25-5.29l30.87-30.88c3.31,3.83,5.3,8.81,5.3,14.25,0,12.09-9.84,21.92-21.92,21.92Z"/></g></svg>