<?xml version="1.0" encoding="UTF-8"?><svg id="Layer_2" xmlns="http://www.w3.org/2000/svg" viewBox="0 0 39.16 43.35"><defs><style>.cls-1{fill:#0081c9;}</style></defs><g id="Layer_1-2"><path class="cls-1" d="m11.93,30.2c-.34-.43-.28-1.05.13-1.42l1.23-1.1-1.87-.75-.68-.27c-.32-.13-.55-.4-.63-.73-.02-.1-.04-.21-.03-.32l.18-2.4.44-5.86-1.2.15c-.91.12-1.71.63-2.2,1.4L.48,29.66c-.77,1.22-.59,2.82.44,3.83l6.71,6.58-.1-6.69-1.31-1.26,3.26-5.2.08,14.45c2.55,1.12,5.34,1.81,8.27,1.96l.21-5.27-.36-.46-5.75-7.4Z"/><path class="cls-1" d="m19.83,21.05c-.45-.29-1.19-.29-1.65,0l-2.1,1.36c-.45.29-.82.09-.82-.45v-3.82c0-.54.37-.74.82-.45l1.34.87.77.5c.45.29,1.19.29,1.65,0l.77-.5,1.33-.87c.45-.29.82-.09.82.45v3.82c0,.54-.37.74-.82.45l-2.1-1.36Zm3.37,14.69c-1.73-1.96-2.48-4.71-2.1-7.72.22-1.75.88-3.38,1.79-4.82.04-.07.09-.14.13-.21.85-1.28,1.89-2.39,2.98-3.26.21-.17.42-.33.64-.48-.24-.68-.44-1.38-.57-2.06l-5.13-.67c3.01-.67,4.1-2.94,4.48-5.34l-1.09-.47-.08-.04c-.36-.16-.59-.52-.56-.92.05-.83,0-1.76-.09-2.27-4.82,1.92-6.61-1.52-6.63-1.55-.08-.15-.11-.25-.1-.42,0,0-.02-.04-.02-.05,0,0-.33-.13-1.28.3-1.9.85-1.36,3.85-1.35,3.88.08.43-.15.86-.55,1.03l-.08.04-.99.42c.37,2.42,1.45,4.71,4.48,5.38l-4.23.54-.11,1.5-.34,4.63v.12s-.13,1.67-.13,1.67l3.4,1.37c.34.13.58.43.64.79.06.36-.06.72-.33.96l-1.75,1.58,3.49,4.5,2.25,2.9c.15.19.23.44.22.69l-.23,5.58c3.05-.1,5.95-.78,8.6-1.92v-2.82c-.96-.18-1.8-.45-2.51-.79-1.28-.6-2.19-1.37-2.81-2.08"/><path class="cls-1" d="m14.8,4.07c1.3-.58,2.33-.63,3.06-.16.52.34.76.86.84,1.31.3.44,1.52,1.76,4.59.38.46-.21.95-.17,1.34.1.81.56.97,2.11.94,3.53h.03c.04-1.17-.02-2.28-.02-3.13,0-3.36-2.95-6.09-6.58-6.09s-6.58,2.73-6.58,6.09c0,.34,0,.72-.02,1.13.25-1.2.89-2.48,2.39-3.15"/><path class="cls-1" d="m35.41,26.57l-.32,1.18h-1.41l-.22.82h1.41l-.38,1.41h-1.41l-.84,3.08-.29,1.08h-1.67l-1.19-4.16h-1.41l-.4-1.41h1.41l-.14-.49-.09-.32h-1.41l-.41-1.41h1.41l-.52-1.82h1.47l.52,1.82h3.1l.49-1.82h1.46l-.13.48-.36,1.34h1.41l-.06.23Zm3.61,1.68c-.62-3.81-3.6-7.11-6.22-8.24.17-.13.32-.26.44-.39,0,0,2.65-2.88,1.71-4.63-.19-.35-.57-.48-1.04-.48-.69,0-1.57.28-2.34.53-.17.06-.34.08-.5.08-1.05,0-1.84-1.06-2.44-1.06-.11,0-.22.04-.31.12-.68.6-.53,1.98-.19,3.27.32,1.2.8,2.32.94,2.62-1.02.46-2.09,1.23-3.04,2.22-.27.28-.53.57-.78.89-.02.02-.04.05-.06.07-1.1,1.41-1.94,3.14-2.17,4.98-.38,3,.55,5.82,3,7.38.71.45,1.55.8,2.51,1.01.75.17,1.58.26,2.49.26,6.17,0,8.8-3.77,8-8.65"/><polygon class="cls-1" points="29.9 27.75 30.14 28.57 31.99 28.57 32.21 27.75 29.9 27.75"/><polygon class="cls-1" points="30.54 29.98 30.75 30.7 31.09 31.88 31.21 31.43 31.61 29.98 30.54 29.98"/></g></svg>