<?xml version="1.0" encoding="UTF-8"?><svg id="Layer_2" xmlns="http://www.w3.org/2000/svg" viewBox="0 0 41.95 41.62"><defs><style>.cls-1{fill:#0085b9;}</style></defs><g id="Layer_2-2"><path class="cls-1" d="m23.19,41.3v-3.46c0-.18-.14-.32-.32-.32h-3.61c-.18,0-.32.14-.32.32v3.46c0,.18-.14.32-.32.32h4.89c-.18,0-.32-.14-.32-.32"/><path class="cls-1" d="m5.99,19.71c0,.18-.14.32-.32.32h-3.04c-.18,0-.32-.14-.32-.32v-1.28c0-.18.15-.32.32-.32h3.04c.18,0,.32.14.32.32v1.28Zm0,4.62c0,.18-.14.32-.32.32h-3.04c-.18,0-.32-.14-.32-.32v-1.28c0-.18.15-.32.32-.32h3.04c.18,0,.32.14.32.32v1.28Zm0,4.62c0,.18-.14.32-.32.32h-3.04c-.18,0-.32-.14-.32-.32v-1.28c0-.18.15-.32.32-.32h3.04c.18,0,.32.14.32.32v1.28Zm0,4.62c0,.18-.14.32-.32.32h-3.04c-.18,0-.32-.14-.32-.32v-1.28c0-.18.14-.32.32-.32h3.04c.18,0,.32.14.32.32v1.28Zm1.93-20.5H.38c-.21,0-.38.16-.38.37v27.85c0,.18.14.32.32.32h7.66c.18,0,.32-.14.32-.32V13.45c0-.21-.17-.38-.38-.38"/><path class="cls-1" d="m27.45,12.92c0,.18-.14.32-.32.32h-3.92c-.18,0-.32-.14-.32-.32v-1.59c0-.18.14-.32.32-.32h3.92c.18,0,.32.14.32.32v1.59Zm0,4.62c0,.18-.14.32-.32.32h-3.92c-.18,0-.32-.14-.32-.32v-1.59c0-.18.14-.32.32-.32h3.92c.18,0,.32.14.32.32v1.59Zm0,4.62c0,.18-.14.32-.32.32h-3.92c-.18,0-.32-.14-.32-.32v-1.59c0-.18.14-.32.32-.32h3.92c.18,0,.32.14.32.32v1.59Zm0,4.62c0,.18-.14.32-.32.32h-3.92c-.18,0-.32-.14-.32-.32v-1.59c0-.18.14-.32.32-.32h3.92c.18,0,.32.14.32.32v1.59Zm-8.3-13.87c0,.18-.14.32-.32.32h-3.84c-.18,0-.32-.14-.32-.32v-1.59c0-.18.14-.32.32-.32h3.84c.18,0,.32.14.32.32v1.59Zm0,4.62c0,.18-.14.32-.32.32h-3.84c-.18,0-.32-.14-.32-.32v-1.59c0-.18.14-.32.32-.32h3.84c.18,0,.32.14.32.32v1.59Zm0,4.62c0,.18-.14.32-.32.32h-3.84c-.18,0-.32-.14-.32-.32v-1.59c0-.18.14-.32.32-.32h3.84c.18,0,.32.14.32.32v1.59Zm0,4.62c0,.18-.14.32-.32.32h-3.84c-.18,0-.32-.14-.32-.32v-1.59c0-.18.14-.32.32-.32h3.84c.18,0,.32.14.32.32v1.59Zm11.72-18.64H11.16c-.18,0-.32.14-.32.32v32.83c0,.18.14.32.32.32h5.17c-.18,0-.32-.14-.32-.32v-8.83c0-.18.13-.39.29-.47l2.35-1.2c.16-.08.29,0,.29.17v3.84c0,.18.14.32.32.32h3.61c.18,0,.32-.14.32-.32v-3.84c0-.18.13-.25.28-.17l2.23,1.19c.16.08.28.3.28.47v8.83c0,.18-.14.32-.32.32h5.21c.18,0,.32-.14.32-.32V8.47c0-.18-.14-.32-.32-.32"/><path class="cls-1" d="m33.97,17.87h5.08c.18,0,.32-.14.32-.32v-1.59c0-.18-.14-.32-.32-.32h-5.08c-.18,0-.32.14-.32.32v1.59c0,.18.15.32.32.32"/><path class="cls-1" d="m33.97,13.24h1.94c.18,0,.32-.14.32-.32v-1.59c0-.18-.14-.32-.32-.32h-1.94c-.18,0-.32.14-.32.32v1.59c0,.18.15.32.32.32"/><path class="cls-1" d="m14.99,6.11h12.14c.18,0,.32-.14.32-.32v-1.4c0-.18-.14-.32-.32-.32h-12.14c-.18,0-.32.14-.32.32v1.4c0,.18.14.32.32.32"/><path class="cls-1" d="m19.46,2.04h3.1c.18,0,.32-.14.32-.32V.32c0-.18-.14-.32-.32-.32h-3.1c-.18,0-.32.14-.32.32v1.4c0,.18.14.32.32.32"/><path class="cls-1" d="m7.98,8.97h-3.1c-.18,0-.32.14-.32.32v1.4c0,.18.14.32.32.32h3.1c.18,0,.32-.14.32-.32v-1.4c0-.18-.14-.32-.32-.32"/><path class="cls-1" d="m39,24.55c0,.18-.14.32-.32.32h-1.77c-.18,0-.32-.14-.32-.32v-1.74c0-.18.14-.32.32-.32h1.77c.18,0,.32.14.32.32v1.74Zm0,6.32c0,.18-.14.32-.32.32h-1.77c-.18,0-.32-.14-.32-.32v-1.74c0-.18.14-.32.32-.32h1.77c.18,0,.32.14.32.32v1.74Zm0,6.32c0,.18-.14.32-.32.32h-1.77c-.18,0-.32-.14-.32-.32v-1.74c0-.18.14-.32.32-.32h1.77c.18,0,.32.14.32.32v1.74Zm2.62-16.93h-7.66c-.18,0-.32.14-.32.32v20.72c0,.18.14.32.32.32h7.66c.18,0,.32-.14.32-.32v-20.72c0-.18-.15-.32-.32-.32"/></g></svg>