<?xml version="1.0" encoding="UTF-8"?><svg id="Layer_2" xmlns="http://www.w3.org/2000/svg" viewBox="0 0 23.63 38.15"><defs><style>.cls-1{fill:#80923e;}</style></defs><g id="Layer_1-2"><path class="cls-1" d="m7.72,13.95l1.97,1.52c.42.32.77.7,1.09,1.09.04.05.07.09.11.13.33.44.61.91.82,1.41.09.2.18.4.25.62.2-.1.41-.17.61-.25.51-.19,1.04-.32,1.59-.38.06,0,.11,0,.17-.01.51-.04,1.03-.05,1.55.03l2.46.37c3.41-.55,5.08-4.01,5.08-4.01.4-.49.19-1.21-.35-1.44-.07-.03-.15-.05-.23-.07l-3.96-.59c-1.65-.25-3.31.39-4.36,1.68l-1.19,1.46.23-1.87c.21-1.65-.48-3.29-1.8-4.31l-3.17-2.45c-.07-.05-.14-.09-.21-.12-.55-.23-1.21.11-1.29.74,0,0-1.35,3.6.62,6.44"/><path class="cls-1" d="m19.73,20.85c-.07-.03-.15-.05-.23-.07l-1.22-.19-2.73-.41c-.53-.08-1.06-.06-1.57.04-.07.01-.14.02-.21.04-1,.24-1.91.79-2.58,1.61l-1.19,1.46.23-1.87c.13-1.05-.1-2.09-.62-2.97-.04-.06-.08-.12-.12-.18-.29-.44-.64-.83-1.06-1.16l-2.19-1.69-.98-.76c-.07-.05-.14-.09-.21-.12-.55-.23-1.21.11-1.29.74,0,0-1.41,3.76.79,6.68l1.77,1.36c.27.21.53.44.76.69.1.11.19.23.29.35.37.45.69.95.93,1.48.11.24.21.48.29.73.24-.12.48-.21.73-.29.55-.19,1.12-.31,1.71-.35.15-.01.3-.04.45-.04.34,0,.69.02,1.03.07l2.21.33c3.63-.43,5.37-4.05,5.37-4.05.4-.49.19-1.21-.35-1.44"/><path class="cls-1" d="m14.55,9.37l.12.87c.05.34.28.6.57.73.29.12.64.11.92-.09l.65-.47,2.46-1.76c1.3-.93,1.95-2.47,1.73-4.05l-.54-3.79c-.05-.34-.28-.6-.57-.73-.29-.12-.64-.11-.92.09l-2.97,2.13c-1.38.99-2.09,2.64-1.85,4.32l.39,2.75Z"/><path class="cls-1" d="m16.36,28.73c-.07-.03-.15-.05-.23-.07l-1.52-.23-2.44-.37c-.46-.07-.92-.06-1.37,0-.09.01-.17.03-.26.05-1.06.21-2.03.77-2.73,1.64l-.61.75-.58.71.11-.9.12-.96c.14-1.1-.13-2.19-.71-3.1-.05-.07-.1-.15-.15-.22-.26-.37-.58-.7-.94-.99l-1.95-1.51-1.21-.94c-.07-.05-.14-.09-.21-.12-.55-.23-1.21.11-1.29.74,0,0-2.31,6.02,4.24,9.44l-.35.82-.35.82-.99,2.33c-.2.46.04,1,.53,1.21l.56.24c.49.21,1.04,0,1.24-.45l.99-2.33.35-.82.35-.82c7,2.37,9.75-3.47,9.75-3.47.4-.49.19-1.21-.35-1.44"/></g></svg>