<?xml version="1.0" encoding="UTF-8"?><svg id="Layer_2" xmlns="http://www.w3.org/2000/svg" viewBox="0 0 28.96 26.31"><defs><style>.cls-1{fill:#c00d0e;}</style></defs><g id="Layer_1-2"><path class="cls-1" d="m14.48,26.31L3.92,14.41h4.47c.39,0,.74-.24.89-.6l1.75-4.23,3.43,8.76c.14.37.5.62.9.62h0c.4,0,.76-.25.9-.62l2.05-3.88,6.72-.04-10.56,11.91Z"/><path class="cls-1" d="m27.11,12.07l-.35.4h-5.52s-3.46.04-3.84.07c-.38.02-.71.26-.84.62l-1.19,2.16-3.4-8.69c-.14-.37-.5-.61-.89-.61-.4,0-.75.23-.9.6l-2.42,5.86H2.2l-.35-.4h0c-1.15-1.28-1.86-2.97-1.86-4.83C0,3.24,3.24,0,7.24,0c1.8,0,3.45.66,4.71,1.75h0s2.53,2.05,2.53,2.05l2.53-2.06h0c1.27-1.08,2.91-1.74,4.71-1.74,4,0,7.24,3.24,7.24,7.24,0,1.86-.71,3.55-1.86,4.83h0Z"/></g></svg>