<?xml version="1.0" encoding="UTF-8"?><svg id="Layer_2" xmlns="http://www.w3.org/2000/svg" viewBox="0 0 19.45 32.33"><defs><style>.cls-1{fill:#008dc6;}</style></defs><g id="Layer_1-2"><path class="cls-1" d="m16.68,25.65c0,.96-.78,1.74-1.74,1.74H4.4c-.96,0-1.74-.78-1.74-1.74V4.62c0-.96.78-1.74,1.74-1.74h10.55c.96,0,1.74.78,1.74,1.74v21.03Zm-6.96,5.6c-.77,0-1.4-.63-1.4-1.4s.63-1.4,1.4-1.4,1.4.63,1.4,1.4-.63,1.4-1.4,1.4M17.71,0H1.74C.78,0,0,.78,0,1.74v28.85c0,.96.78,1.74,1.74,1.74h15.97c.96,0,1.74-.78,1.74-1.74V1.74c0-.96-.78-1.74-1.74-1.74"/></g></svg>