<?xml version="1.0" encoding="UTF-8"?><svg id="Layer_2" xmlns="http://www.w3.org/2000/svg" viewBox="0 0 18.62 44.26"><defs><style>.cls-1{fill:#b2b2b2;}</style></defs><g id="Layer_1-2"><path class="cls-1" d="m18.61,27.45l-.03-.17-.09-.51-1.47-8.62-.16-.92-.71-4.18c-.05-.29-.26-.53-.54-.62l-3.64-1.14c1.04-.67,1.47-1.77,1.63-2.91.16-1.05.1-2.14.09-2.97.53-.24,1.07-.62,1.57-1.18.07-.07.03-.19-.06-.22-1.3-.43-1.61-3.21-4.05-3.89-1.77-.49-3.56.52-4.51,1.63-4.55.27-2.68,4.62-1.76,5.01,0,.52.03,1.07.11,1.62.17,1.14.59,2.24,1.63,2.91h-.02s0,0,0,0l-3.6,1.13c-.29.09-.51.34-.56.65l-.71,4.16-.16.92L.13,26.77l-.09.51h0l-.03.17c-.06.37.14.73.5.86l2.14.81c.3.11.51.41.51.73v13.62c0,.43.35.78.78.78h10.7c.43,0,.78-.35.78-.78v-13.6c0-.33.2-.62.51-.73l2.18-.82c.35-.13.56-.49.5-.86"/></g></svg>