<?xml version="1.0" encoding="utf-8"?>
<!-- Generator: Adobe Illustrator 26.2.1, SVG Export Plug-In . SVG Version: 6.00 Build 0)  -->
<svg version="1.1" id="Layer_2_00000170987489818839251770000014001407255648132254_"
	 xmlns="http://www.w3.org/2000/svg" xmlns:xlink="http://www.w3.org/1999/xlink" x="0px" y="0px" viewBox="0 0 18.62 44.26"
	 style="enable-background:new 0 0 18.62 44.26;" xml:space="preserve">
<style type="text/css">
	.st0{fill:#FCC131;}
</style>
<g id="Layer_1-2">
	<path class="st0" d="M18.61,27.45l-0.03-0.17l-0.09-0.51l-1.47-8.62l-0.16-0.92l-0.71-4.18c-0.05-0.29-0.26-0.53-0.54-0.62
		l-3.64-1.14c1.04-0.67,1.47-1.77,1.63-2.91c0.16-1.05,0.1-2.14,0.09-2.97c0.53-0.24,1.07-0.62,1.57-1.18
		c0.07-0.07,0.03-0.19-0.06-0.22c-1.3-0.43-1.61-3.21-4.05-3.89C9.38-0.37,7.59,0.64,6.64,1.75C2.09,2.02,3.96,6.37,4.88,6.76
		c0,0.52,0.03,1.07,0.11,1.62c0.17,1.14,0.59,2.24,1.63,2.91H6.6l0,0L3,12.42c-0.29,0.09-0.51,0.34-0.56,0.65l-0.71,4.16l-0.16,0.92
		l-1.44,8.62l-0.09,0.51l0,0l-0.03,0.17c-0.06,0.37,0.14,0.73,0.5,0.86l2.14,0.81c0.3,0.11,0.51,0.41,0.51,0.73v13.62
		c0,0.43,0.35,0.78,0.78,0.78h10.7c0.43,0,0.78-0.35,0.78-0.78v-13.6c0-0.33,0.2-0.62,0.51-0.73l2.18-0.82
		c0.35-0.13,0.56-0.49,0.5-0.86"/>
</g>
</svg>
