<?xml version="1.0" encoding="UTF-8"?><svg id="Layer_2" xmlns="http://www.w3.org/2000/svg" viewBox="0 0 32.29 41.68"><defs><style>.cls-1{fill:#fff;}.cls-2{fill:#fdc300;}</style></defs><g id="Layer_1-2"><path class="cls-1" d="m16.3,38.23l-.79.77-1.72-1.67-1.06-1.03.89-14.85v-.23s.03-.02.03-.02l.41-.67,1.1-1.79-1.21-1.98-.31-.5h3.76l-.53.87-.99,1.61,1.1,1.79.28.45.04.06.11.18v.23s.9,14.85.9,14.85l-1.99,1.94Zm10.68-9.24c.73,1.06,2.1,1.54,3.37,1.09,1.52-.53,2.31-2.2,1.78-3.72l-3.82-10.83c-.38,1.01-1.2,1.72-2.2,1.92-.19.04-.39.06-.59.06-.53,0-1.06-.14-1.55-.41l-1.28-.71,2.28,5.16c.18.41.03.88-.32,1.12-.04.03-.09.06-.14.08-.12.05-.24.08-.37.08-.01,0-.03,0-.05,0-.33-.02-.64-.22-.79-.54l-.22-.51-.04-.08-.12-.28-.57-1.28-1.76-4-.27-.6-.05-.12-.21-.02-2.07-.22c1.14-.2,1.99-.7,2.63-1.36.23-.24.43-.5.62-.77.06-.09.11-.18.17-.27.56-.97.88-2.1,1.09-3.2.2-1.04.3-2.04.42-2.84.02-.14.03-.29.04-.43.06-.78-.05-1.53-.31-2.24-.73-2.02-2.61-3.63-5.03-4-.35-.05-.69-.08-1.03-.08-2.99,0-5.58,2.01-6.02,4.84-.46,3-2.07,8.67,3.77,10.14-.01,0-.02,0-.03,0,0,0,0,0,0,0l-1.4.37-.15.04-1.3.34-1.12.3h0l-4.46,1.18-.13.03c-.94.25-1.71.99-1.93,2L0,35.93c1.27,1.14,2.67,2.13,4.17,2.96l1.52-10.9c.03-.23.15-.43.32-.57.18-.15.42-.23.67-.21.42.04.76.36.82.77,0,.06.01.12,0,.18l-.54,11.55c0,.16-.06.3-.13.42,2.55,1,5.32,1.55,8.22,1.55,3.22,0,6.27-.68,9.04-1.89v-14.99l2.89,4.19Z"/><path class="cls-1" d="m27.47,5.15l-1.46-.81c-.2-.11-.41-.17-.61-.18l.21-.9.21-.89.1-.42c.12-.49-.19-.98-.68-1.1-.49-.12-.98.19-1.1.68l-.22.92c.03.06.07.12.1.19.14.27.26.56.36.84.11.3.19.6.26.91.09.44.14.89.16,1.34.01.43-.01.85-.08,1.28-.04.27-.08.56-.12.86-.04.32-.09.66-.14,1.01-.21,1.43-.56,3.11-1.35,4.58-.12.22-.24.42-.38.62.17.25.39.47.65.61l1.46.81c.22.12.45.18.67.18.53,0,.98-.36,1.14-.96l.57-2.26,1.26-4.99c.22-.86-.24-1.91-1.01-2.34"/><path class="cls-2" d="m16.3,38.23l-.79.77-1.72-1.67-1.06-1.03.89-14.85v-.23s.03-.02.03-.02l.41-.67,1.1-1.79-1.21-1.98-.31-.5h3.76l-.53.87-.99,1.61,1.1,1.79.28.45.04.06.11.18v.23s.9,14.85.9,14.85l-1.99,1.94Zm10.68-9.24c.73,1.06,2.1,1.54,3.37,1.09,1.52-.53,2.31-2.2,1.78-3.72l-3.82-10.83c-.38,1.01-1.2,1.72-2.2,1.92-.19.04-.39.06-.59.06-.53,0-1.06-.14-1.55-.41l-1.28-.71,2.28,5.16c.18.41.03.88-.32,1.12-.04.03-.09.06-.14.08-.12.05-.24.08-.37.08-.01,0-.03,0-.05,0-.33-.02-.64-.22-.79-.54l-.22-.51-.04-.08-.12-.28-.57-1.28-1.76-4-.27-.6-.05-.12-.21-.02-2.07-.22c1.14-.2,1.99-.7,2.63-1.36.23-.24.43-.5.62-.77.06-.09.11-.18.17-.27.56-.97.88-2.1,1.09-3.2.2-1.04.3-2.04.42-2.84.02-.14.03-.29.04-.43.06-.78-.05-1.53-.31-2.24-.73-2.02-2.61-3.63-5.03-4-.35-.05-.69-.08-1.03-.08-2.99,0-5.58,2.01-6.02,4.84-.46,3-2.07,8.67,3.77,10.14-.01,0-.02,0-.03,0,0,0,0,0,0,0l-1.4.37-.15.04-1.3.34-1.12.3h0l-4.46,1.18-.13.03c-.94.25-1.71.99-1.93,2L0,35.93c1.27,1.14,2.67,2.13,4.17,2.96l1.52-10.9c.03-.23.15-.43.32-.57.18-.15.42-.23.67-.21.42.04.76.36.82.77,0,.06.01.12,0,.18l-.54,11.55c0,.16-.06.3-.13.42,2.55,1,5.32,1.55,8.22,1.55,3.22,0,6.27-.68,9.04-1.89v-14.99l2.89,4.19Z"/><path class="cls-2" d="m27.47,5.15l-1.46-.81c-.2-.11-.41-.17-.61-.18l.21-.9.21-.89.1-.42c.12-.49-.19-.98-.68-1.1-.49-.12-.98.19-1.1.68l-.22.92c.03.06.07.12.1.19.14.27.26.56.36.84.11.3.19.6.26.91.09.44.14.89.16,1.34.01.43-.01.85-.08,1.28-.04.27-.08.56-.12.86-.04.32-.09.66-.14,1.01-.21,1.43-.56,3.11-1.35,4.58-.12.22-.24.42-.38.62.17.25.39.47.65.61l1.46.81c.22.12.45.18.67.18.53,0,.98-.36,1.14-.96l.57-2.26,1.26-4.99c.22-.86-.24-1.91-1.01-2.34"/></g></svg>