<?xml version="1.0" encoding="UTF-8"?><svg id="Layer_2" xmlns="http://www.w3.org/2000/svg" viewBox="0 0 32.33 38.59"><defs><style>.cls-1{fill:#323a41;}</style></defs><g id="Layer_1-2"><path class="cls-1" d="m27.82,27.18c-1.25.39-1.95,1.73-1.55,2.98l-18.82,5.92c-.39-1.25-1.73-1.95-2.98-1.56l-1.65-5.26c1.25-.39,1.95-1.73,1.55-2.98l18.82-5.92c.39,1.25,1.73,1.95,2.98,1.56l1.65,5.26Zm-27.82-.92l3.88,12.33,26.76-8.41-3.88-12.33L0,26.26Z"/><path class="cls-1" d="m7.38,29.16c-.78.24-1.22,1.08-.97,1.86.24.78,1.08,1.22,1.86.97.78-.24,1.22-1.08.97-1.86-.24-.78-1.08-1.21-1.86-.97"/><path class="cls-1" d="m22.36,24.45c-.78.24-1.22,1.08-.97,1.86.24.78,1.08,1.22,1.86.97.78-.25,1.22-1.08.97-1.86-.24-.78-1.08-1.21-1.86-.97"/><path class="cls-1" d="m5.87,23.25c.21-.6.18-1.29-.15-1.89l17.37-9.37c.62,1.16,2.06,1.59,3.22.96l2.62,4.85c-.33.18-.59.42-.79.71l1.06,3.36,3.06-1.65-6.13-11.37L1.43,22.16l1.14,2.12,3.3-1.04Z"/><path class="cls-1" d="m25.05,16.76c-.39-.72-1.29-.99-2.01-.6-.68.37-.95,1.19-.65,1.89l2.8-.88c-.03-.14-.07-.28-.14-.41"/><path class="cls-1" d="m24.54,7.95c-.54-.61-1.48-.67-2.09-.12-.61.54-.66,1.47-.13,2.08.97-.53,1.83-.99,2.53-1.37-.06-.21-.15-.41-.31-.59"/><path class="cls-1" d="m7.34,18.06c-.07-.43-.25-.84-.56-1.19L21.52,3.75c.87.98,2.37,1.07,3.36.2l3.66,4.12c-.37.32-.61.74-.72,1.18l1.62,2.97,2.89-2.57L23.75,0,2.79,18.63l1.16,1.3c.88-.5,2.05-1.14,3.39-1.88"/><path class="cls-1" d="m16.34,28.24l-.05,1.65-.98-1.33,1.03-.31Zm-1.95-.95l2-.6-.02.57-1.64.5-.34-.46Zm2.89.67l1.3-.39.04-.99-1.31.4.02-.57,1.27-.39.04-.99-1.29.39.04-1.27-.94.28-.04,1.27-2.61.79-.75-1.03-.95.29.75,1.03-1.3.39.58.8,1.3-.39.34.46-1.35.41.58.8,1.35-.41,1.88,2.57.94-.28.1-3.17Z"/></g></svg>