<?xml version="1.0" encoding="UTF-8"?><svg id="Layer_2" xmlns="http://www.w3.org/2000/svg" viewBox="0 0 124.66 68.04"><defs><style>.cls-1{fill:#fff;}.cls-2{fill:#7d73a2;}.cls-3{fill:#e30613;}.cls-4{fill:none;stroke:#fff;stroke-miterlimit:10;stroke-width:.5px;}</style></defs><g id="Layer_2-2"><rect class="cls-2" width="124.66" height="68.04"/><path class="cls-1" d="m9.19,21.69l3.17-7h.99l3.18,7h-1.05l-2.83-6.44h.4l-2.83,6.44h-1.03Zm1.35-1.75l.27-.8h3.94l.29.8h-4.5Z"/><line class="cls-4" x1="12.86" y1="29.17" x2="12.86" y2="64.17"/><g id="Layer_1-2"><path class="cls-1" d="m60.65,46.38c-1.02.32-1.59,1.41-1.26,2.43l-15.35,4.83c-.32-1.02-1.41-1.59-2.43-1.27l-1.35-4.29c1.02-.32,1.59-1.41,1.26-2.43l15.35-4.83c.32,1.02,1.41,1.59,2.43,1.27l1.35,4.29Zm-22.69-.75l3.16,10.06,21.82-6.86-3.16-10.06-21.82,6.86Z"/><path class="cls-1" d="m43.98,48c-.64.2-.99.88-.79,1.52.2.64.88.99,1.52.79.64-.2.99-.88.79-1.52-.2-.64-.88-.99-1.52-.79"/><path class="cls-1" d="m56.2,44.15c-.64.2-.99.88-.79,1.52.2.64.88.99,1.52.79s.99-.88.79-1.52c-.2-.64-.88-.99-1.52-.79"/><path class="cls-1" d="m42.75,43.18c.17-.49.15-1.05-.12-1.54l14.17-7.64c.51.95,1.68,1.3,2.63.78l2.14,3.96c-.27.15-.48.34-.64.58l.86,2.74,2.5-1.35-5-9.27-20.14,10.85.93,1.73,2.69-.85h0Z"/><path class="cls-1" d="m58.39,37.88c-.32-.59-1.05-.81-1.64-.49-.55.3-.77.97-.53,1.54l2.28-.72c-.02-.11-.06-.23-.11-.33"/><path class="cls-1" d="m57.97,30.7c-.44-.5-1.21-.55-1.7-.1-.5.44-.54,1.2-.11,1.7.79-.43,1.49-.81,2.06-1.12-.05-.17-.12-.33-.25-.48"/><path class="cls-1" d="m43.95,38.94c-.06-.35-.2-.69-.46-.97l12.02-10.7c.71.8,1.93.87,2.74.16l2.98,3.36c-.3.26-.5.6-.59.96l1.32,2.42,2.36-2.1-7-7.87-17.09,15.19.95,1.06c.72-.41,1.67-.93,2.76-1.53"/><path class="cls-1" d="m51.29,47.25l-.04,1.35-.8-1.08.84-.25h0Zm-1.59-.77l1.63-.49-.02.46-1.34.41-.28-.38h0Zm2.36.55l1.06-.32.03-.81-1.07.33.02-.46,1.04-.32.03-.81-1.05.32.03-1.04-.77.23-.03,1.04-2.13.64-.61-.84-.77.24.61.84-1.06.32.47.65,1.06-.32.28.38-1.1.33.47.65,1.1-.33,1.53,2.1.77-.23.08-2.59h0Z"/></g><path class="cls-1" d="m70.44,39.79v-.71h4.93v.71h-4.93Zm0,2.12v-.71h4.93v.71h-4.93Z"/><circle class="cls-1" cx="92.67" cy="40.43" r="9.89"/><path class="cls-3" d="m88.14,43.55v-6.3h.9v5.52h3.41v.78h-4.31Z"/><path class="cls-3" d="m94.81,43.62c-.44,0-.88-.07-1.29-.21-.42-.14-.76-.32-1.02-.56l.41-.71c.21.2.48.36.82.49s.7.19,1.08.19c.47,0,.83-.1,1.09-.3.26-.2.39-.47.39-.81s-.12-.6-.37-.8c-.25-.2-.64-.3-1.18-.3h-.5v-.63l1.87-2.3.13.36h-3.45v-.78h4.16v.61l-1.86,2.29-.47-.28h.3c.76,0,1.33.17,1.71.51.38.34.57.78.57,1.31,0,.35-.09.68-.26.97-.17.29-.44.53-.79.7-.35.17-.8.26-1.34.26Z"/></g></svg>