<?xml version="1.0" encoding="UTF-8"?><svg id="Layer_2" xmlns="http://www.w3.org/2000/svg" viewBox="0 0 124.66 68.04"><defs><style>.cls-1{fill:#0086b9;}.cls-2{fill:#fff;}.cls-3{fill:none;stroke:#fff;stroke-miterlimit:10;stroke-width:.5px;}</style></defs><g id="Layer_2-2"><rect class="cls-1" width="124.66" height="68.04"/><g id="Layer_2-2"><path class="cls-2" d="m81.14,59.29h-13.98v-19.24h13.98v19.24Zm0-19.72h-13.98c-.27,0-.48.21-.48.48v1.11h-1.54c-.27,0-.48.21-.48.48v19.24c0,.27.21.48.48.48h13.98c.27,0,.48-.21.48-.48v-1.11h1.54c.27,0,.48-.21.48-.48v-19.24c0-.27-.21-.48-.48-.48"/><path class="cls-2" d="m75.12,44.02l-.17.52h-1.66l-.18-.52h2.02,0Zm-.55,1.63l-.29.88c-.05.14-.24.14-.29,0l-.31-.88c-.04-.1.04-.21.15-.21h.61c.1,0,.18.1.15.2m-3.78-1.73c.02.06.08.1.15.1h1.21l.18.52h-1.15c-.1,0-.18.1-.15.21l.21.59c.02.06.08.1.15.1h1.15c.06,0,.13.04.15.1l.95,2.7c.02.06.08.1.15.1h.73c.06,0,.13-.04.15-.1l.91-2.7c.02-.06.08-.1.15-.1h1.09c.06,0,.13-.04.15-.1l.21-.59c.04-.1-.04-.21-.15-.21h-1.11l.17-.52h1.18c.06,0,.13-.04.15-.1l.21-.59c.04-.1-.04-.21-.15-.21h-.87c-.1,0-.18-.1-.15-.2l.25-.76c.03-.1-.04-.2-.15-.2h-.63c-.06,0-.13.04-.15.1l-.32.95c-.02.06-.08.1-.15.1h-2.42c-.06,0-.13-.04-.15-.1l-.34-.96c-.02-.06-.08-.1-.15-.1h-.63c-.1,0-.18.1-.15.21l.27.75c.04.1-.04.21-.15.21h-.88c-.1,0-.18.1-.15.21l.21.59h0Z"/><path class="cls-2" d="m69.11,50.67h10.51c.13,0,.24-.11.24-.24s-.11-.24-.24-.24h-10.51c-.13,0-.24.11-.24.24s.11.24.24.24"/><path class="cls-2" d="m69.11,57.37h10.51c.13,0,.24-.11.24-.24s-.11-.24-.24-.24h-10.51c-.13,0-.24.11-.24.24s.11.24.24.24"/><path class="cls-2" d="m69.11,55.69h10.51c.13,0,.24-.11.24-.24s-.11-.24-.24-.24h-10.51c-.13,0-.24.11-.24.24s.11.24.24.24"/><path class="cls-2" d="m69.11,54.02h10.51c.13,0,.24-.11.24-.24s-.11-.24-.24-.24h-10.51c-.13,0-.24.11-.24.24s.11.24.24.24"/><path class="cls-2" d="m69.11,52.35h10.51c.13,0,.24-.11.24-.24s-.11-.24-.24-.24h-10.51c-.13,0-.24.11-.24.24s.11.24.24.24"/></g><path class="cls-2" d="m94.12,24.08l2.28-2.96v.49s-2.18-2.83-2.18-2.83h1.07l1.66,2.18h-.41l1.66-2.18h1.05l-2.2,2.85v-.51s2.31,2.96,2.31,2.96h-1.09l-1.75-2.32.39.06-1.72,2.26h-1.07Z"/><path class="cls-2" d="m49.98,50.06c-.12,0-.23-.04-.31-.13-.09-.08-.13-.19-.13-.32s.04-.24.13-.32c.09-.08.19-.12.31-.12s.22.04.3.12c.08.08.13.19.13.32s-.04.24-.13.32c-.09.08-.19.13-.3.13Zm0,2.63c-.12,0-.23-.04-.31-.13-.09-.08-.13-.19-.13-.32s.04-.24.13-.32c.09-.08.19-.12.31-.12s.22.04.3.12c.08.08.13.19.13.32s-.04.24-.13.32c-.09.08-.19.13-.3.13Z"/><path class="cls-2" d="m51.78,53.19v-.57l2.37-2.29c.21-.2.37-.38.47-.53.1-.15.17-.29.21-.42.04-.13.05-.26.05-.38,0-.3-.1-.54-.32-.71-.21-.17-.52-.26-.92-.26-.31,0-.59.05-.84.15-.25.1-.47.26-.65.48l-.57-.49c.22-.28.52-.5.89-.65.37-.15.79-.23,1.24-.23.4,0,.76.07,1.06.2.3.13.53.32.69.56.16.24.25.53.25.87,0,.19-.02.37-.07.56-.05.18-.14.38-.28.58s-.34.44-.6.69l-2.11,2.04-.2-.32h3.52v.72h-4.18Z"/><path class="cls-2" d="m56.31,53.19l1.9-2.46v.41s-1.81-2.35-1.81-2.35h.89l1.38,1.81h-.34l1.38-1.81h.87l-1.83,2.37v-.42s1.92,2.46,1.92,2.46h-.91l-1.46-1.93.32.05-1.43,1.88h-.89Z"/><path class="cls-2" d="m95.8,54.83c-.33-.53-.58-1.14-.76-1.83-.18-.69-.27-1.44-.27-2.23s.09-1.55.27-2.24c.18-.7.43-1.3.76-1.82h.79c-.35.61-.6,1.25-.76,1.92s-.24,1.38-.24,2.14.08,1.47.24,2.14.42,1.31.76,1.92h-.79Z"/><path class="cls-2" d="m97.77,53.15v-6.07h.87v6.07h-.87Z"/><path class="cls-2" d="m100.46,53.15v-6.07h.71l2.72,4.59h-.38l2.69-4.59h.71v6.07s-.82,0-.82,0v-4.76s.19,0,.19,0l-2.39,4.03h-.4l-2.41-4.03h.22v4.76h-.83Z"/><path class="cls-2" d="m109.62,53.15h-.87v-6.07h4.29v.75h-3.42v5.32Zm-.09-3.2h3.13v.75h-3.13v-.75Z"/><path class="cls-2" d="m114.35,54.83h-.79c.35-.61.61-1.25.77-1.92s.24-1.38.24-2.14-.08-1.47-.24-2.14-.42-1.31-.77-1.92h.79c.34.51.6,1.12.78,1.82.18.7.26,1.44.26,2.24s-.09,1.54-.26,2.23-.44,1.3-.78,1.83Z"/><g id="Layer_2-2-2"><path class="cls-2" d="m79.46,30.15v-2.16c0-.11-.09-.2-.2-.2h-2.25c-.11,0-.2.09-.2.2v2.16c0,.11-.09.2-.2.2h3.05c-.11,0-.2-.09-.2-.2"/><path class="cls-2" d="m68.72,16.67c0,.11-.09.2-.2.2h-1.9c-.11,0-.2-.09-.2-.2v-.8c0-.11.09-.2.2-.2h1.9c.11,0,.2.09.2.2v.8Zm0,2.89c0,.11-.09.2-.2.2h-1.9c-.11,0-.2-.09-.2-.2v-.8c0-.11.09-.2.2-.2h1.9c.11,0,.2.09.2.2v.8Zm0,2.89c0,.11-.09.2-.2.2h-1.9c-.11,0-.2-.09-.2-.2v-.8c0-.11.09-.2.2-.2h1.9c.11,0,.2.09.2.2v.8Zm0,2.89c0,.11-.09.2-.2.2h-1.9c-.11,0-.2-.09-.2-.2v-.8c0-.11.09-.2.2-.2h1.9c.11,0,.2.09.2.2v.8Zm1.21-12.8h-4.71c-.13,0-.24.1-.24.23v17.39c0,.11.09.2.2.2h4.78c.11,0,.2-.09.2-.2V12.76c0-.13-.11-.24-.24-.24"/><path class="cls-2" d="m82.12,12.43c0,.11-.09.2-.2.2h-2.45c-.11,0-.2-.09-.2-.2v-.99c0-.11.09-.2.2-.2h2.45c.11,0,.2.09.2.2v.99Zm0,2.89c0,.11-.09.2-.2.2h-2.45c-.11,0-.2-.09-.2-.2v-.99c0-.11.09-.2.2-.2h2.45c.11,0,.2.09.2.2v.99Zm0,2.89c0,.11-.09.2-.2.2h-2.45c-.11,0-.2-.09-.2-.2v-.99c0-.11.09-.2.2-.2h2.45c.11,0,.2.09.2.2v.99Zm0,2.89c0,.11-.09.2-.2.2h-2.45c-.11,0-.2-.09-.2-.2v-.99c0-.11.09-.2.2-.2h2.45c.11,0,.2.09.2.2v.99Zm-5.18-8.66c0,.11-.09.2-.2.2h-2.4c-.11,0-.2-.09-.2-.2v-.99c0-.11.09-.2.2-.2h2.4c.11,0,.2.09.2.2v.99Zm0,2.89c0,.11-.09.2-.2.2h-2.4c-.11,0-.2-.09-.2-.2v-.99c0-.11.09-.2.2-.2h2.4c.11,0,.2.09.2.2v.99Zm0,2.89c0,.11-.09.2-.2.2h-2.4c-.11,0-.2-.09-.2-.2v-.99c0-.11.09-.2.2-.2h2.4c.11,0,.2.09.2.2v.99Zm0,2.89c0,.11-.09.2-.2.2h-2.4c-.11,0-.2-.09-.2-.2v-.99c0-.11.09-.2.2-.2h2.4c.11,0,.2.09.2.2v.99Zm7.32-11.64h-12.31c-.11,0-.2.09-.2.2v20.5c0,.11.09.2.2.2h3.23c-.11,0-.2-.09-.2-.2v-5.51c0-.11.08-.24.18-.29l1.47-.75c.1-.05.18,0,.18.11v2.4c0,.11.09.2.2.2h2.25c.11,0,.2-.09.2-.2v-2.4c0-.11.08-.16.17-.11l1.39.74c.1.05.17.19.17.29v5.51c0,.11-.09.2-.2.2h3.25c.11,0,.2-.09.2-.2V9.65c0-.11-.09-.2-.2-.2"/><path class="cls-2" d="m86.2,15.52h3.17c.11,0,.2-.09.2-.2v-.99c0-.11-.09-.2-.2-.2h-3.17c-.11,0-.2.09-.2.2v.99c0,.11.09.2.2.2"/><path class="cls-2" d="m86.2,12.63h1.21c.11,0,.2-.09.2-.2v-.99c0-.11-.09-.2-.2-.2h-1.21c-.11,0-.2.09-.2.2v.99c0,.11.09.2.2.2"/><path class="cls-2" d="m74.34,8.18h7.58c.11,0,.2-.09.2-.2v-.87c0-.11-.09-.2-.2-.2h-7.58c-.11,0-.2.09-.2.2v.87c0,.11.09.2.2.2"/><path class="cls-2" d="m77.14,5.63h1.94c.11,0,.2-.09.2-.2v-.87c0-.11-.09-.2-.2-.2h-1.94c-.11,0-.2.09-.2.2v.87c0,.11.09.2.2.2"/><path class="cls-2" d="m69.97,9.96h-1.94c-.11,0-.2.09-.2.2v.87c0,.11.09.2.2.2h1.94c.11,0,.2-.09.2-.2v-.87c0-.11-.09-.2-.2-.2"/><path class="cls-2" d="m89.34,19.69c0,.11-.09.2-.2.2h-1.11c-.11,0-.2-.09-.2-.2v-1.09c0-.11.09-.2.2-.2h1.11c.11,0,.2.09.2.2v1.09Zm0,3.95c0,.11-.09.2-.2.2h-1.11c-.11,0-.2-.09-.2-.2v-1.09c0-.11.09-.2.2-.2h1.11c.11,0,.2.09.2.2v1.09Zm0,3.95c0,.11-.09.2-.2.2h-1.11c-.11,0-.2-.09-.2-.2v-1.09c0-.11.09-.2.2-.2h1.11c.11,0,.2.09.2.2v1.09Zm1.64-10.57h-4.78c-.11,0-.2.09-.2.2v12.94c0,.11.09.2.2.2h4.78c.11,0,.2-.09.2-.2v-12.94c0-.11-.09-.2-.2-.2"/></g><line class="cls-3" x1="12.94" y1="28.68" x2="12.94" y2="63.68"/><path class="cls-2" d="m33.05,19.46v-4.58h1.78c.4,0,.74.06,1.03.19.28.13.5.31.65.55.15.24.23.53.23.86s-.08.62-.23.85c-.15.24-.37.42-.65.55-.28.13-.63.19-1.03.19h-1.42l.29-.31v1.69h-.65Zm.65-1.63l-.29-.33h1.4c.42,0,.74-.09.95-.27s.32-.43.32-.76-.11-.58-.32-.76-.53-.27-.95-.27h-1.4l.29-.33v2.71Z"/><path class="cls-2" d="m39.55,19.51c-.6,0-1.07-.17-1.42-.52-.34-.34-.52-.85-.52-1.51v-2.6h.65v2.58c0,.51.11.88.34,1.12.22.24.54.35.95.35s.73-.12.96-.35c.22-.24.34-.61.34-1.12v-2.58h.63v2.6c0,.66-.17,1.17-.51,1.51-.34.34-.82.52-1.42.52Z"/><path class="cls-2" d="m42.77,19.46v-4.58h2.05c.53,0,.93.11,1.22.32.28.21.42.5.42.87,0,.25-.06.46-.17.63-.11.17-.26.3-.45.39-.19.09-.39.14-.61.14l.12-.2c.26,0,.49.05.69.14s.36.23.48.4.18.4.18.66c0,.39-.15.7-.44.91-.29.22-.73.32-1.31.32h-2.18Zm.65-.53h1.5c.36,0,.64-.06.83-.18.19-.12.29-.31.29-.58s-.1-.46-.29-.58c-.19-.12-.47-.18-.83-.18h-1.56v-.53h1.4c.33,0,.59-.06.77-.18s.27-.3.27-.55-.09-.43-.27-.55-.44-.18-.77-.18h-1.34v3.52Z"/><path class="cls-2" d="m47.66,19.46v-4.58h.65v4.01h2.48v.57h-3.13Z"/><path class="cls-2" d="m51.48,19.46v-4.58h.65v4.58h-.65Z"/><path class="cls-2" d="m55.49,19.51c-.35,0-.67-.06-.96-.17-.29-.12-.55-.28-.76-.49s-.39-.46-.51-.74c-.12-.28-.18-.6-.18-.93s.06-.65.18-.93.29-.53.51-.74.47-.37.77-.49c.29-.12.62-.17.96-.17s.68.06.98.18.55.3.76.53l-.42.41c-.17-.18-.37-.32-.59-.41-.22-.09-.45-.13-.7-.13s-.5.04-.72.13c-.22.09-.41.21-.57.37-.16.16-.29.34-.38.56-.09.22-.13.45-.13.7s.04.49.13.7.21.4.38.56c.16.16.35.28.57.37.22.09.46.13.72.13s.48-.04.7-.13c.22-.09.41-.23.59-.41l.42.41c-.21.24-.46.41-.76.54-.3.12-.63.18-.98.18Z"/><path class="cls-2" d="m32.68,27.36c-.35,0-.68-.05-1-.16-.32-.11-.57-.25-.75-.42l.24-.51c.17.15.4.28.67.38s.55.15.84.15c.27,0,.48-.03.65-.09.17-.06.29-.15.37-.25.08-.11.12-.23.12-.36,0-.16-.05-.28-.15-.38-.1-.1-.24-.17-.4-.23-.16-.06-.34-.11-.54-.15-.2-.04-.39-.1-.59-.15-.2-.06-.38-.13-.54-.23-.16-.09-.3-.21-.4-.37-.1-.15-.15-.35-.15-.6s.06-.45.19-.65.32-.36.58-.48c.26-.12.59-.18.99-.18.27,0,.53.04.79.1.26.07.49.17.68.3l-.22.52c-.2-.13-.4-.23-.62-.28-.22-.06-.43-.09-.63-.09-.26,0-.47.03-.63.1-.17.07-.29.15-.36.26-.08.11-.11.23-.11.37,0,.16.05.29.15.39.1.1.24.17.4.23.16.06.34.11.54.15.2.05.39.1.59.15.2.06.38.13.54.22.16.09.3.21.4.37.1.15.15.35.15.59s-.06.45-.19.64-.32.36-.59.48-.6.18-1,.18Z"/><path class="cls-2" d="m36,26.73h2.67v.57h-3.32v-4.58h3.23v.57h-2.58v3.44Zm-.06-2.03h2.35v.56h-2.35v-.56Z"/><path class="cls-2" d="m41.71,27.36c-.35,0-.67-.06-.96-.17-.29-.12-.55-.28-.76-.49s-.39-.46-.51-.74c-.12-.28-.18-.6-.18-.93s.06-.65.18-.93.29-.53.51-.74.47-.37.77-.49c.29-.12.62-.17.96-.17s.68.06.98.18.55.3.76.53l-.42.41c-.17-.18-.37-.32-.59-.41-.22-.09-.45-.13-.7-.13s-.5.04-.72.13c-.22.09-.41.21-.57.37-.16.16-.29.34-.38.56-.09.22-.13.45-.13.7s.04.49.13.7.21.4.38.56c.16.16.35.28.57.37.22.09.46.13.72.13s.48-.04.7-.13c.22-.09.41-.23.59-.41l.42.41c-.21.24-.46.41-.76.54-.3.12-.63.18-.98.18Z"/><path class="cls-2" d="m45.19,27.3v-4.01h-1.57v-.57h3.78v.57h-1.57v4.01h-.65Z"/><path class="cls-2" d="m50.06,27.36c-.35,0-.67-.06-.97-.18s-.56-.28-.77-.49-.39-.46-.51-.74c-.12-.28-.18-.59-.18-.93s.06-.65.18-.93c.12-.28.29-.53.51-.74.22-.21.48-.38.77-.49.3-.12.62-.18.97-.18s.67.06.97.17c.3.12.55.28.77.49.22.21.39.46.51.75.12.29.18.6.18.93s-.06.65-.18.93c-.12.28-.29.53-.51.74-.22.21-.47.37-.77.49-.3.12-.62.17-.97.17Zm0-.58c.26,0,.49-.04.71-.13.22-.09.4-.21.56-.37.16-.16.28-.35.37-.56.09-.21.13-.45.13-.7s-.04-.48-.13-.7c-.09-.21-.21-.4-.37-.56s-.35-.29-.56-.37c-.22-.09-.45-.13-.71-.13s-.49.04-.7.13c-.22.09-.4.21-.57.37-.16.16-.29.35-.38.56s-.13.44-.13.7.04.49.13.7.21.4.38.56c.16.16.35.28.57.37.22.09.45.13.7.13Z"/><path class="cls-2" d="m53.42,27.3v-4.58h1.78c.4,0,.74.06,1.03.19.28.13.5.31.65.55.15.24.23.53.23.86s-.08.62-.23.85c-.15.24-.37.42-.65.55-.28.13-.63.19-1.03.19h-1.42l.29-.3v1.69h-.65Zm.65-1.63l-.29-.32h1.4c.42,0,.74-.09.95-.27.22-.18.32-.43.32-.76s-.11-.58-.32-.76-.53-.27-.95-.27h-1.4l.29-.33v2.71Zm2.41,1.63l-1.16-1.66h.7l1.18,1.66h-.71Z"/><path class="cls-2" d="m61.12,20.08c-.17,0-.31-.06-.43-.18-.12-.12-.18-.27-.18-.45s.06-.33.18-.44c.12-.11.26-.17.43-.17s.3.06.42.17c.12.11.18.26.18.44s-.06.33-.18.45c-.12.12-.26.18-.42.18Zm0,3.64c-.17,0-.31-.06-.43-.18-.12-.12-.18-.27-.18-.45s.06-.33.18-.44c.12-.11.26-.17.43-.17s.3.06.42.17c.12.11.18.26.18.44s-.06.33-.18.45c-.12.12-.26.18-.42.18Z"/><path class="cls-2" d="m88.08,54.62v-2.49h-4.45c-.05,0-.1-.05-.1-.1v-2.51c0-.06.04-.1.1-.1h4.45v-2.48c0-.1.12-.15.18-.08l3.25,3.84s.04.11,0,.15l-3.25,3.85c-.06.08-.18.03-.18-.08Z"/><path class="cls-2" d="m38.66,58.45l-.69.36-.08.04c-.19.1-.39.16-.59.18-.06,0-.11,0-.17,0-.26,0-.52-.07-.76-.19-.19.66-.75,1.21-1.66,1.65l-.5.23-.41.19c1.76-.03,3.43-.38,4.94-1l-.08-1.41v-.06Z"/><path class="cls-2" d="m40.99,52.32l-1.52-.18-.09.78h.01s.05.87.05.87h.01c.33-.12.69-.08,1,.1.3.18.51.48.58.82l.22,1.2c.12.64-.19,1.28-.77,1.59l-.8.42.09,1.53c1.22-.62,2.32-1.43,3.26-2.39-.02-.07-.04-.14-.07-.21l-1.95-4.54Z"/><path class="cls-2" d="m32.86,47.98c-.23-.02-.44-.06-.65-.1l.02.1.59,2.44.02.08.75,3.08.61-3.08.04-.2.46-2.31.02-.09c-.19.04-.39.07-.6.09-.2.02-.41.03-.63.03s-.43-.01-.63-.03"/><path class="cls-2" d="m42.8,49.81h0s-.12,1.06-.12,1.06l-.84-.1.17-1.43-.83-.1-.17,1.43-.77-.09h-.07s.01-.13.01-.13l.11-.93h0s.25-2.14.25-2.14l.89-.32-.17,1.46.83.1.17-1.46.79.51-.25,2.13Zm-3.7-3.6l.05-.41c.03-.27-.16-.51-.43-.54-.02,0-.04,0-.06,0-.24,0-.45.18-.48.43l-.13,1.14-.1.87-.32,2.8-.07.61-.15,1.33-.11.96-.1.82.1.18.06.12.82-.28h0s.37-3.23.37-3.23h.11s1.85.23,1.85.23l4.13.48.55-4.78-6.1-.71Z"/><path class="cls-2" d="m33.52,45.43s-.03-.01-.04-.02c0,0-.02,0-.02,0-.32.08-.88-.25-1.18-.08-1.77,1.06-1.9-.33-1.68-.29.57.33.36-.46,1.12-1.18.55-.52,1.37.04,1.79.39.43-.34,1.25-.86,1.79-.33.75.74.51,1.53,1.09,1.22.23-.02.05,1.36-1.68.24-.29-.19-.87.13-1.18.04m1.39,1.53c.32-.1.59-.23.82-.39,1.32-.9,1.37-2.68,1.35-4.05-.12.02-.25.03-.38.05h0s-.02,0-.02,0c-1.02.13-2.02.2-2.99.21h0s0,0,0,0c-.08,0-.15,0-.23,0s-.16,0-.24,0h-.01c-1.32-.02-2.48-.14-3.27-.25-.03,1.68.07,3.98,2.48,4.5.33.07.69.11,1.11.11.5,0,.93-.06,1.3-.16.04-.01.08-.02.12-.04"/><path class="cls-2" d="m34.27,59.56c.65-.31,1.04-.68,1.12-1.06.08-.37-.14-.73-.34-.97-.2-.21-.47-.32-.84-.35-.38-.03-.85.03-1.44.18,0,0,0,0-.01,0l-3.3.86-.09.02-.88.23.08-1.97.14-3.7c.01-.29.25-.51.54-.5.04,0,.08,0,.11.02.03,0,.07.02.1.04.18.09.3.27.29.49l-.02.66-.14,3.61.58-.15,1.97-.51s-.03-.02-.04-.04l-1.01-1.09-.93-1.01c-.15-.17-.18-.41-.07-.61,0-.02.02-.03.03-.05l1.26-1.72-1.64-.42-.37-.09-.86-.22c-.07-.02-.13-.05-.19-.09-.07-.05-.12-.12-.16-.2-.06-.15-.06-.31.02-.46l1.19-2.23.07-.13.05-.1h-.12v.12l-1.84.65c-.58.21-1,.71-1.09,1.33l-1.23,8.24c1.77,1.35,3.94,2.19,6.34,2.48l1.24-.56,1.44-.65.06-.03Z"/><path class="cls-2" d="m40.22,56.11l-.22-1.2c-.01-.06-.05-.1-.08-.11-.02-.01-.07-.03-.14-.01l-.28.1-.36.12-.15.05-.33.11-.07.02h0s-.11.04-.11.04l-.47.16-.62.21-.09.03h-.02c-.24.09-.5-.02-.63-.24l-.07-.13-.31-.57-.18.06-.07.02s-.02,0-.03.01c-.08.04-.14.12-.16.21v.11s-.17,1.24-.17,1.24c-.02.18.03.36.15.49l.87.98c.15.17.39.24.61.17.03-.01.07-.02.1-.04l1.19-.63.07-.04.44-.23.24-.13.27-.14.38-.2c.17-.09.26-.28.23-.47"/><path class="cls-2" d="m29.08,41.34s0,0,0,0c.02,0,.17.03.42.08.12.02.26.04.43.07.75.11,1.92.25,3.26.26h.01c.08,0,.15,0,.23,0s.15,0,.23,0h0c1.12-.01,2.13-.11,2.88-.2h0c.19-.02.36-.05.51-.07.17-.02.31-.05.43-.07.21-.03.33-.06.35-.06.03,0,.05-.01.08-.02.26-.09.42-.36.37-.64-.05-.27-.29-.45-.55-.45-.03,0-.06,0-.08,0,0,0-.02,0-.03,0,0,0-.15.03-.41.07-.06,0-.12.02-.18.03h0c-.08.01-.16.02-.26.04-.61.09-1.67.19-3.33.19s-2.6-.1-3.2-.19c-.14-.02-.25-.04-.35-.06v.02s-.07-.01-.1-.02c-.22-.04-.37-.06-.43-.08-.02,0-.03,0-.03,0-.04,0-.08-.01-.11-.01-.26,0-.5.18-.55.45-.06.3.13.6.43.66"/><path class="cls-2" d="m30.4,39.35c.15.02.32.04.53.07.57.06,1.38.11,2.5.11,1.17,0,2.03-.05,2.62-.11.21-.02.39-.04.53-.06.2-.03.34-.05.43-.07v-4.6c0-.31-.25-.56-.56-.56h0s-.05,0-.07,0c-.19.02-.41.05-.66.07v3.99c0,.14-.05.26-.14.35-.1.1-.23.17-.38.17-.29,0-.52-.23-.52-.52v-3.9c-.23.01-.48.02-.73.03,0,0,0,0,0,0v4.47c0,.29-.23.52-.52.52s-.52-.23-.52-.52v-4.47s0,0,0,0c-.24,0-.48-.02-.7-.03v3.9h0c0,.29-.23.52-.52.52-.13,0-.25-.05-.34-.13-.11-.1-.18-.23-.18-.39h0v-3.99c-.24-.02-.46-.05-.65-.07-.02,0-.05,0-.07,0-.14,0-.27.05-.37.14-.12.11-.19.26-.19.42v4.57s.02,0,.04,0c.09.02.25.05.48.09"/><path class="cls-2" d="m40.99,52.32l-1.52-.18-.09.78h.01s.05.87.05.87h.01c.33-.12.69-.08,1,.1.3.18.51.48.58.82l.22,1.2c.12.64-.19,1.28-.77,1.59l-.8.42.09,1.53c1.22-.62,2.32-1.43,3.26-2.39-.02-.07-.04-.14-.07-.21l-1.95-4.54Z"/><path class="cls-2" d="m32.86,47.98c-.23-.02-.44-.06-.65-.1l.02.1.59,2.44.02.08.75,3.08.61-3.08.04-.2.46-2.31.02-.09c-.19.04-.39.07-.6.09-.2.02-.41.03-.63.03s-.43-.01-.63-.03"/><path class="cls-2" d="m42.8,49.81h0s-.12,1.06-.12,1.06l-.84-.1.17-1.43-.83-.1-.17,1.43-.77-.09h-.07s.01-.13.01-.13l.11-.93h0s.25-2.14.25-2.14l.89-.32-.17,1.46.83.1.17-1.46.79.51-.25,2.13Zm-3.7-3.6l.05-.41c.03-.27-.16-.51-.43-.54-.02,0-.04,0-.06,0-.24,0-.45.18-.48.43l-.13,1.14-.1.87-.32,2.8-.07.61-.15,1.33-.11.96-.1.82.1.18.06.12.82-.28h0s.37-3.23.37-3.23h.11s1.85.23,1.85.23l4.13.48.55-4.78-6.1-.71Z"/><path class="cls-2" d="m33.52,45.43s-.03-.01-.04-.02c0,0-.02,0-.02,0-.32.08-.88-.25-1.18-.08-1.77,1.06-1.9-.33-1.68-.29.57.33.36-.46,1.12-1.18.55-.52,1.37.04,1.79.39.43-.34,1.25-.86,1.79-.33.75.74.51,1.53,1.09,1.22.23-.02.05,1.36-1.68.24-.29-.19-.87.13-1.18.04m1.39,1.53c.32-.1.59-.23.82-.39,1.32-.9,1.37-2.68,1.35-4.05-.12.02-.25.03-.38.05h0s-.02,0-.02,0c-1.02.13-2.02.2-2.99.21h0s0,0,0,0c-.08,0-.15,0-.23,0s-.16,0-.24,0h-.01c-1.32-.02-2.48-.14-3.27-.25-.03,1.68.07,3.98,2.48,4.5.33.07.69.11,1.11.11.5,0,.93-.06,1.3-.16.04-.01.08-.02.12-.04"/><path class="cls-2" d="m34.27,59.56c.65-.31,1.04-.68,1.12-1.06.08-.37-.14-.73-.34-.97-.2-.21-.47-.32-.84-.35-.38-.03-.85.03-1.44.18,0,0,0,0-.01,0l-3.3.86-.09.02-.88.23.08-1.97.14-3.7c.01-.29.25-.51.54-.5.04,0,.08,0,.11.02.03,0,.07.02.1.04.18.09.3.27.29.49l-.02.66-.14,3.61.58-.15,1.97-.51s-.03-.02-.04-.04l-1.01-1.09-.93-1.01c-.15-.17-.18-.41-.07-.61,0-.02.02-.03.03-.05l1.26-1.72-1.64-.42-.37-.09-.86-.22c-.07-.02-.13-.05-.19-.09-.07-.05-.12-.12-.16-.2-.06-.15-.06-.31.02-.46l1.19-2.23.07-.13.05-.1h-.12v.12l-1.84.65c-.58.21-1,.71-1.09,1.33l-1.23,8.24c1.77,1.35,3.94,2.19,6.34,2.48l1.24-.56,1.44-.65.06-.03Z"/><path class="cls-2" d="m40.22,56.11l-.22-1.2c-.01-.06-.05-.1-.08-.11-.02-.01-.07-.03-.14-.01l-.28.1-.36.12-.15.05-.33.11-.07.02h0s-.11.04-.11.04l-.47.16-.62.21-.09.03h-.02c-.24.09-.5-.02-.63-.24l-.07-.13-.31-.57-.18.06-.07.02s-.02,0-.03.01c-.08.04-.14.12-.16.21v.11s-.17,1.24-.17,1.24c-.02.18.03.36.15.49l.87.98c.15.17.39.24.61.17.03-.01.07-.02.1-.04l1.19-.63.07-.04.44-.23.24-.13.27-.14.38-.2c.17-.09.26-.28.23-.47"/><path class="cls-2" d="m29.08,41.34s0,0,0,0c.02,0,.17.03.42.08.12.02.26.04.43.07.75.11,1.92.25,3.26.26h.01c.08,0,.15,0,.23,0s.15,0,.23,0h0c1.12-.01,2.13-.11,2.88-.2h0c.19-.02.36-.05.51-.07.17-.02.31-.05.43-.07.21-.03.33-.06.35-.06.03,0,.05-.01.08-.02.26-.09.42-.36.37-.64-.05-.27-.29-.45-.55-.45-.03,0-.06,0-.08,0,0,0-.02,0-.03,0,0,0-.15.03-.41.07-.06,0-.12.02-.18.03h0c-.08.01-.16.02-.26.04-.61.09-1.67.19-3.33.19s-2.6-.1-3.2-.19c-.14-.02-.25-.04-.35-.06v.02s-.07-.01-.1-.02c-.22-.04-.37-.06-.43-.08-.02,0-.03,0-.03,0-.04,0-.08-.01-.11-.01-.26,0-.5.18-.55.45-.06.3.13.6.43.66"/><path class="cls-2" d="m30.4,39.35c.15.02.32.04.53.07.57.06,1.38.11,2.5.11,1.17,0,2.03-.05,2.62-.11.21-.02.39-.04.53-.06.2-.03.34-.05.43-.07v-4.6c0-.31-.25-.56-.56-.56h0s-.05,0-.07,0c-.19.02-.41.05-.66.07v3.99c0,.14-.05.26-.14.35-.1.1-.23.17-.38.17-.29,0-.52-.23-.52-.52v-3.9c-.23.01-.48.02-.73.03,0,0,0,0,0,0v4.47c0,.29-.23.52-.52.52s-.52-.23-.52-.52v-4.47s0,0,0,0c-.24,0-.48-.02-.7-.03v3.9h0c0,.29-.23.52-.52.52-.13,0-.25-.05-.34-.13-.11-.1-.18-.23-.18-.39h0v-3.99c-.24-.02-.46-.05-.65-.07-.02,0-.05,0-.07,0-.14,0-.27.05-.37.14-.12.11-.19.26-.19.42v4.57s.02,0,.04,0c.09.02.25.05.48.09"/><path class="cls-2" d="m9.93,21.2v-7h3.14c.81,0,1.43.16,1.86.48.43.32.65.77.65,1.33,0,.38-.08.7-.25.96-.17.26-.4.46-.69.6-.29.14-.6.21-.93.21l.18-.3c.4,0,.75.07,1.06.21.31.14.55.34.73.61.18.27.27.6.27,1,0,.6-.23,1.06-.68,1.4-.45.33-1.12.5-2,.5h-3.34Zm1-.81h2.3c.55,0,.98-.09,1.27-.28.29-.19.44-.48.44-.88s-.15-.7-.44-.89c-.29-.19-.72-.28-1.27-.28h-2.39v-.81h2.14c.51,0,.9-.09,1.18-.28.28-.19.42-.47.42-.84s-.14-.65-.42-.84c-.28-.19-.67-.28-1.18-.28h-2.05v5.38Z"/><path class="cls-2" d="m105.41,24.16c-.62,0-1.15-.14-1.59-.41-.44-.27-.78-.67-1.01-1.18-.23-.52-.35-1.15-.35-1.9,0-.79.14-1.46.42-2.01s.67-.96,1.17-1.24,1.07-.42,1.72-.42c.33,0,.65.03.95.1.3.07.57.17.78.31l-.38.78c-.18-.13-.39-.21-.62-.26s-.47-.07-.72-.07c-.71,0-1.28.22-1.7.67s-.63,1.1-.63,1.97c0,.14,0,.31.02.5.01.19.05.38.1.57l-.34-.34c.1-.31.26-.57.48-.78s.48-.37.78-.47c.3-.1.63-.16.99-.16.47,0,.88.09,1.24.26.36.17.64.42.85.73.21.32.31.69.31,1.13s-.11.84-.33,1.17c-.22.33-.52.59-.89.77s-.79.27-1.26.27Zm-.04-.81c.31,0,.58-.06.81-.17s.41-.27.54-.47.2-.44.2-.72c0-.41-.14-.74-.43-.99-.29-.24-.68-.37-1.17-.37-.32,0-.6.06-.84.18s-.43.28-.57.49-.21.44-.21.7c0,.24.06.46.19.67s.31.37.56.49c.25.13.55.19.91.19Z"/></g></svg>