<?xml version="1.0" encoding="UTF-8"?><svg id="Layer_2" xmlns="http://www.w3.org/2000/svg" viewBox="0 0 124.66 68.04"><defs><style>.cls-1{fill:#fff;}.cls-2{fill:#c00d0d;}.cls-3{fill:none;stroke:#fff;stroke-miterlimit:10;stroke-width:.5px;}</style></defs><g id="Layer_2-2"><rect class="cls-2" width="124.66" height="68.04"/><line class="cls-3" x1="12.94" y1="28.82" x2="12.94" y2="63.83"/><path class="cls-1" d="m9.3,21.35v-7h3.14c.81,0,1.43.16,1.86.48.43.32.65.77.65,1.33,0,.38-.08.7-.25.96-.17.26-.4.46-.69.6-.29.14-.6.21-.93.21l.18-.3c.4,0,.75.07,1.06.21.31.14.55.34.73.61.18.27.27.6.27,1,0,.6-.23,1.06-.68,1.4-.45.33-1.12.5-2,.5h-3.34Zm1-.81h2.3c.55,0,.98-.09,1.27-.28.29-.19.44-.48.44-.88s-.15-.7-.44-.89c-.29-.19-.72-.28-1.27-.28h-2.39v-.81h2.14c.51,0,.9-.09,1.18-.28.28-.19.42-.47.42-.84s-.14-.65-.42-.84c-.28-.19-.67-.28-1.18-.28h-2.05v5.38Z"/><path class="cls-1" d="m89.94,27.76h-2.34l-.41-1.16h3.13l-.39,1.16Zm-1.14,3.39l-1.02-2.88h1.99l-.97,2.88Zm2.24-5.07l.46-1.36h-.54l-.46,1.36h-3.49l-.48-1.36h-.54l.48,1.36h-1.54l.18.51h1.54l.41,1.16h-1.6l.18.51h1.6l1.2,3.41h.72l1.15-3.41h1.54l.18-.51h-1.55l.39-1.16h1.51l.18-.51h-1.52Z"/><path class="cls-1" d="m62.9,58.59h-.68c-.21,0-.38-.17-.38-.38s.17-.38.38-.38h.68c.21,0,.38.17.38.38s-.17.38-.38.38m0,1.67h-.68c-.21,0-.38-.17-.38-.38s.17-.38.38-.38h.68c.21,0,.38.17.38.38s-.17.38-.38.38m0,1.67h-.68c-.21,0-.38-.17-.38-.38,0-.1.07-.24.17-.31.06-.04.13-.07.2-.07h.68c.05,0,.14.03.2.07.09.04.17.18.17.31,0,.21-.17.38-.38.38m-2.27-3.33h-5.06c-.21,0-.38-.17-.38-.38s.17-.38.38-.38h5.06c.21,0,.38.17.38.38s-.17.38-.38.38m0,1.67h-5.06c-.21,0-.38-.17-.38-.38s.17-.38.38-.38h5.06c.21,0,.38.17.38.38s-.17.38-.38.38m0,1.67h-5.06c-.21,0-.38-.17-.38-.38,0-.1.07-.24.17-.31.06-.04.13-.07.2-.07h5.06c.05,0,.14.03.2.07.09.04.17.18.17.31,0,.21-.17.38-.38.38m2.97-5.8h-9.85c.13.23.21.48.21.76v.32h0s0,.27,0,.61v5c0,.4.33.73.73.73h8.82c.41,0,.73-.33.73-.73v-6.02c0-.37-.3-.67-.66-.67"/><path class="cls-1" d="m53.02,51.02c.06-.4.44-.67.84-.61.4.06.67.44.61.84-.06.4-.44.67-.84.61-.4-.06-.67-.44-.61-.84m3.74-.34c.07.05.13.19.13.3,0,.12-.04.22-.12.31l-2.86,2.98c-.07.09-.25.15-.38.13-.06,0-.16-.05-.23-.11-.07-.05-.13-.19-.13-.3,0-.12.04-.22.12-.31l2.85-2.98c.17-.17.44-.18.61-.01m.29,3.29c-.06.4-.44.67-.84.61-.4-.06-.67-.44-.61-.84s.44-.67.84-.61c.4.06.67.44.61.84m-4.65,1.37h7.37c.44,0,.79-.35.79-.79v-4.7c0-.36-.32-.65-.71-.65h-9.78c-.39,0-.71.29-.71.65v9.45h0v.23c-.02.24.16.54.4.67.11.06.23.1.36.1.42,0,.76-.34.76-.76v-1.09s.02-1.54.02-1.54c0-.84.68-1.52,1.51-1.54h0Z"/><path class="cls-1" d="m53.19,57.11v-.22c0-.42-.34-.76-.76-.76s-.76.34-.76.76v1.09s-.02,1.54-.02,1.54c0,.34-.12.66-.31.91h1.24c.34,0,.61-.27.61-.61v-2.55h0v-.17Z"/><g id="Layer_1-2"><path class="cls-1" d="m56.32,36.16l-6.75-7.6h2.86c.25,0,.47-.15.57-.38l1.12-2.7,2.19,5.6c.09.24.32.4.58.4h0c.26,0,.49-.16.58-.4l1.31-2.48,4.29-.03-6.75,7.61h0Z"/><path class="cls-1" d="m64.39,27.06l-.22.26h-3.53s-2.21.03-2.45.04c-.24.01-.45.17-.54.4l-.76,1.38-2.17-5.55c-.09-.24-.32-.39-.57-.39s-.48.15-.58.38l-1.55,3.74h-3.55l-.22-.26h0c-.73-.82-1.19-1.9-1.19-3.09,0-2.56,2.08-4.63,4.63-4.63,1.15,0,2.2.42,3.01,1.12h0l1.62,1.31,1.62-1.32h0c.81-.69,1.86-1.11,3.01-1.11,2.56,0,4.63,2.07,4.63,4.63,0,1.19-.45,2.27-1.19,3.09h0Z"/></g><path class="cls-1" d="m67.92,56.04c-.16,0-.3-.06-.42-.17-.12-.11-.17-.26-.17-.43s.06-.32.17-.43c.12-.11.26-.17.42-.17s.29.06.41.17c.11.11.17.25.17.43s-.06.32-.17.43c-.11.11-.25.17-.41.17Zm0,3.53c-.16,0-.3-.06-.42-.17-.12-.11-.17-.26-.17-.43s.06-.32.17-.43c.12-.11.26-.17.42-.17s.29.06.41.17c.11.11.17.25.17.43s-.06.32-.17.43c-.11.11-.25.17-.41.17Z"/><path class="cls-1" d="m71.54,56.56v-.79h4.48v.79h-4.48Zm1.82,1.79v-4.38h.84v4.38h-.84Z"/><path class="cls-1" d="m78.9,59.06v-6.6l.43.47h-2.01v-.87h2.57v7h-.99Z"/><path class="cls-1" d="m71.31,27.37v-.79h4.48v.79h-4.48Zm0,2.37v-.79h4.48v.79h-4.48Z"/><path class="cls-1" d="m80.2,31.74c-.49,0-.97-.08-1.44-.23-.46-.15-.84-.36-1.13-.62l.46-.79c.23.22.54.4.91.54.37.14.77.21,1.19.21.53,0,.94-.11,1.23-.34.29-.23.43-.53.43-.91,0-.26-.06-.49-.19-.68-.13-.19-.34-.34-.66-.44-.31-.1-.74-.16-1.28-.16h-1.59l.37-3.66h3.95v.87h-3.58l.52-.49-.29,2.89-.52-.48h1.35c.7,0,1.26.09,1.69.27.43.18.74.43.93.75.19.32.29.68.29,1.1s-.1.76-.29,1.09-.48.59-.88.79c-.39.2-.88.29-1.48.29Z"/></g></svg>