<?xml version="1.0" encoding="UTF-8"?><svg id="Layer_2" xmlns="http://www.w3.org/2000/svg" viewBox="0 0 124.66 68.04"><defs><style>.cls-1{fill:#0081c9;}.cls-2{fill:#fff;}.cls-3{fill:#7d73a2;}.cls-4{fill:none;stroke:#fff;stroke-miterlimit:10;stroke-width:.5px;}</style></defs><g id="Layer_2-2"><rect class="cls-3" width="124.66" height="68.04"/><line class="cls-4" x1="12.94" y1="28.68" x2="12.94" y2="63.68"/><path class="cls-2" d="m13.45,21.28c-.53,0-1.02-.09-1.47-.27-.45-.18-.84-.43-1.17-.75-.33-.32-.59-.7-.78-1.13-.19-.43-.28-.91-.28-1.43s.09-1,.28-1.43c.19-.43.45-.81.78-1.13s.72-.57,1.17-.75.94-.27,1.48-.27,1.04.09,1.49.27c.46.18.85.46,1.17.81l-.65.63c-.27-.28-.57-.49-.9-.62s-.69-.21-1.07-.21-.76.07-1.1.2c-.34.13-.63.32-.88.56-.25.24-.44.53-.58.85-.14.33-.2.69-.2,1.08s.07.75.2,1.08c.14.33.33.61.58.85.25.24.54.43.88.56s.7.2,1.1.2.74-.07,1.07-.21c.33-.14.63-.35.9-.63l.65.63c-.32.36-.71.63-1.17.82-.46.19-.96.28-1.5.28Z"/><g id="Layer_1-2"><path class="cls-2" d="m60.73,45.87c-1.02.32-1.59,1.41-1.26,2.43l-15.35,4.83c-.32-1.02-1.41-1.59-2.43-1.27l-1.35-4.29c1.02-.32,1.59-1.41,1.26-2.43l15.35-4.83c.32,1.02,1.41,1.59,2.43,1.27l1.35,4.29Zm-22.69-.75l3.16,10.06,21.82-6.86-3.16-10.06-21.82,6.86Z"/><path class="cls-2" d="m44.06,47.49c-.64.2-.99.88-.79,1.52.2.64.88.99,1.52.79.64-.2.99-.88.79-1.52-.2-.64-.88-.99-1.52-.79"/><path class="cls-2" d="m56.28,43.65c-.64.2-.99.88-.79,1.52.2.64.88.99,1.52.79s.99-.88.79-1.52c-.2-.64-.88-.99-1.52-.79"/><path class="cls-2" d="m42.83,42.67c.17-.49.15-1.05-.12-1.54l14.17-7.64c.51.95,1.68,1.3,2.63.78l2.14,3.96c-.27.15-.48.34-.64.58l.86,2.74,2.5-1.35-5-9.27-20.14,10.85.93,1.73,2.69-.85h0Z"/><path class="cls-2" d="m58.47,37.38c-.32-.59-1.05-.81-1.64-.49-.55.3-.77.97-.53,1.54l2.28-.72c-.02-.11-.06-.23-.11-.33"/><path class="cls-2" d="m58.06,30.19c-.44-.5-1.21-.55-1.7-.1-.5.44-.54,1.2-.11,1.7.79-.43,1.49-.81,2.06-1.12-.05-.17-.12-.33-.25-.48"/><path class="cls-2" d="m44.03,38.44c-.06-.35-.2-.69-.46-.97l12.02-10.7c.71.8,1.93.87,2.74.16l2.98,3.36c-.3.26-.5.6-.59.96l1.32,2.42,2.36-2.1-7-7.87-17.09,15.19.95,1.06c.72-.41,1.67-.93,2.76-1.53"/><path class="cls-2" d="m51.37,46.74l-.04,1.35-.8-1.08.84-.25h0Zm-1.59-.77l1.63-.49-.02.46-1.34.41-.28-.38h0Zm2.36.55l1.06-.32.03-.81-1.07.33.02-.46,1.04-.32.03-.81-1.05.32.03-1.04-.77.23-.03,1.04-2.13.64-.61-.84-.77.24.61.84-1.06.32.47.65,1.06-.32.28.38-1.1.33.47.65,1.1-.33,1.53,2.1.77-.23.08-2.59h0Z"/></g><path class="cls-2" d="m70.53,39.28v-.71h4.93v.71h-4.93Zm0,2.12v-.71h4.93v.71h-4.93Z"/><circle class="cls-2" cx="92.75" cy="39.93" r="9.89"/><path class="cls-1" d="m89.57,43.08v-6.3h.9v5.52h3.41v.78h-4.31Z"/><path class="cls-1" d="m95.05,43.08v-5.94l.39.42h-1.81v-.78h2.31v6.3h-.89Z"/></g></svg>