<?xml version="1.0" encoding="UTF-8"?><svg id="Layer_2" xmlns="http://www.w3.org/2000/svg" viewBox="0 0 124.66 68.04"><defs><style>.cls-1{fill:#fff;}.cls-2{fill:#b25099;}.cls-3{fill:none;stroke:#fff;stroke-miterlimit:10;stroke-width:.5px;}</style></defs><g id="Layer_2-2"><rect class="cls-2" width="124.66" height="68.04"/><path class="cls-1" d="m104.83,55.29c-.17,0-.31-.06-.43-.18-.12-.12-.18-.27-.18-.45s.06-.33.18-.44c.12-.11.26-.17.43-.17s.3.06.42.17c.12.11.18.26.18.44s-.06.33-.18.45-.26.18-.42.18Zm0,3.64c-.17,0-.31-.06-.43-.18-.12-.12-.18-.27-.18-.45s.06-.33.18-.44c.12-.11.26-.17.43-.17s.3.06.42.17c.12.11.18.26.18.44s-.06.33-.18.45c-.12.12-.26.18-.42.18Z"/><line class="cls-3" x1="12.94" y1="28.68" x2="12.94" y2="63.68"/><path class="cls-1" d="m13.45,21.28c-.53,0-1.02-.09-1.47-.27-.45-.18-.84-.43-1.17-.75-.33-.32-.59-.7-.78-1.13-.19-.43-.28-.91-.28-1.43s.09-1,.28-1.43c.19-.43.45-.81.78-1.13s.72-.57,1.17-.75.94-.27,1.48-.27,1.04.09,1.49.27c.46.18.85.46,1.17.81l-.65.63c-.27-.28-.57-.49-.9-.62s-.69-.21-1.07-.21-.76.07-1.1.2c-.34.13-.63.32-.88.56-.25.24-.44.53-.58.85-.14.33-.2.69-.2,1.08s.07.75.2,1.08c.14.33.33.61.58.85.25.24.54.43.88.56s.7.2,1.1.2.74-.07,1.07-.21c.33-.14.63-.35.9-.63l.65.63c-.32.36-.71.63-1.17.82-.46.19-.96.28-1.5.28Z"/><path class="cls-1" d="m38.36,55.56c-.17,0-.31-.06-.43-.18-.12-.12-.18-.27-.18-.45s.06-.33.18-.44c.12-.11.26-.17.43-.17s.3.06.42.17c.12.11.18.26.18.44s-.06.33-.18.45-.26.18-.42.18Zm0,3.64c-.17,0-.31-.06-.43-.18-.12-.12-.18-.27-.18-.45s.06-.33.18-.44c.12-.11.26-.17.43-.17s.3.06.42.17c.12.11.18.26.18.44s-.06.33-.18.45c-.12.12-.26.18-.42.18Z"/><path class="cls-1" d="m72.86,34.78h-1.17c-.36,0-.64-.29-.64-.64s.29-.64.64-.64h1.17c.36,0,.64.29.64.64s-.29.64-.64.64m0,2.85h-1.17c-.36,0-.64-.29-.64-.64s.29-.64.64-.64h1.17c.36,0,.64.29.64.64s-.29.64-.64.64m0,2.85h-1.17c-.36,0-.64-.29-.64-.64-.01-.18.12-.41.29-.53.1-.07.22-.12.35-.12h1.17c.09,0,.25.05.35.12.16.07.29.3.29.53,0,.36-.29.64-.64.64m-3.88-5.71h-8.66c-.36,0-.64-.29-.64-.64s.29-.64.64-.64h8.66c.36,0,.64.29.64.64s-.29.64-.64.64m0,2.85h-8.66c-.36,0-.64-.29-.64-.64s.29-.64.64-.64h8.66c.36,0,.64.29.64.64s-.29.64-.64.64m0,2.85h-8.66c-.36,0-.64-.29-.64-.64-.01-.18.12-.41.29-.53.1-.07.22-.12.35-.12h8.66c.09,0,.25.05.35.12.16.07.29.3.29.53,0,.36-.29.64-.64.64m5.09-9.94h-16.86c.22.39.36.83.36,1.3v.55h0s0,.47,0,1.05v8.55c0,.69.56,1.26,1.26,1.26h15.11c.69,0,1.26-.56,1.26-1.26v-10.31c0-.63-.51-1.14-1.14-1.14"/><path class="cls-1" d="m55.93,21.81c.11-.68.75-1.15,1.44-1.04.68.11,1.15.75,1.04,1.44-.11.68-.75,1.15-1.44,1.04-.68-.11-1.15-.75-1.04-1.44m6.4-.59c.12.09.22.32.23.52,0,.2-.07.38-.21.53l-4.89,5.1c-.13.16-.42.25-.65.22-.1,0-.28-.09-.39-.2-.12-.09-.22-.32-.23-.52,0-.2.07-.38.21-.53l4.89-5.1c.28-.29.75-.3,1.04-.02m.49,5.63c-.11.68-.75,1.15-1.44,1.04-.68-.11-1.15-.75-1.04-1.44s.75-1.15,1.44-1.04c.68.11,1.15.75,1.04,1.44m-7.96,2.35h12.62c.75,0,1.35-.61,1.35-1.35v-8.05c0-.62-.55-1.12-1.22-1.12h-16.75c-.67,0-1.22.5-1.22,1.12v16.18h-.02v.39c-.03.41.28.92.69,1.14.18.1.39.16.62.16.72,0,1.3-.58,1.3-1.3v-1.87s.03-2.64.03-2.64c0-1.44,1.16-2.61,2.59-2.64h0Z"/><path class="cls-1" d="m56.22,32.24v-.38c0-.72-.59-1.3-1.3-1.3s-1.3.59-1.3,1.3v1.87s-.03,2.65-.03,2.65c0,.59-.2,1.13-.53,1.57h2.13c.58,0,1.05-.47,1.05-1.05v-4.36h-.02v-.29Z"/><path class="cls-1" d="m34.4,57.98h-.68c-.21,0-.38-.17-.38-.38s.17-.38.38-.38h.68c.21,0,.38.17.38.38s-.17.38-.38.38m0,1.67h-.68c-.21,0-.38-.17-.38-.38s.17-.38.38-.38h.68c.21,0,.38.17.38.38s-.17.38-.38.38m0,1.67h-.68c-.21,0-.38-.17-.38-.38,0-.1.07-.24.17-.31.06-.04.13-.07.2-.07h.68c.05,0,.14.03.2.07.09.04.17.18.17.31,0,.21-.17.38-.38.38m-2.27-3.33h-5.06c-.21,0-.38-.17-.38-.38s.17-.38.38-.38h5.06c.21,0,.38.17.38.38s-.17.38-.38.38m0,1.67h-5.06c-.21,0-.38-.17-.38-.38s.17-.38.38-.38h5.06c.21,0,.38.17.38.38s-.17.38-.38.38m0,1.67h-5.06c-.21,0-.38-.17-.38-.38,0-.1.07-.24.17-.31.06-.04.13-.07.2-.07h5.06c.05,0,.14.03.2.07.09.04.17.18.17.31,0,.21-.17.38-.38.38m2.97-5.8h-9.85c.13.23.21.48.21.76v.32h0s0,.27,0,.61v5c0,.4.33.73.73.73h8.82c.41,0,.73-.33.73-.73v-6.02c0-.37-.3-.67-.66-.67"/><path class="cls-1" d="m24.52,50.41c.06-.4.44-.67.84-.61.4.06.67.44.61.84-.06.4-.44.67-.84.61-.4-.06-.67-.44-.61-.84m3.74-.34c.07.05.13.19.13.3,0,.12-.04.22-.12.31l-2.86,2.98c-.07.09-.25.15-.38.13-.06,0-.16-.05-.23-.11-.07-.05-.13-.19-.13-.3,0-.12.04-.22.12-.31l2.85-2.98c.17-.17.44-.18.61-.01m.29,3.29c-.06.4-.44.67-.84.61-.4-.06-.67-.44-.61-.84s.44-.67.84-.61c.4.06.67.44.61.84m-4.65,1.37h7.37c.44,0,.79-.35.79-.79v-4.7c0-.36-.32-.65-.71-.65h-9.78c-.39,0-.71.29-.71.65v9.45h0v.23c-.02.24.16.54.4.67.11.06.23.1.36.1.42,0,.76-.34.76-.76v-1.09s.02-1.54.02-1.54c0-.84.68-1.52,1.51-1.54h0Z"/><path class="cls-1" d="m24.69,56.49v-.22c0-.42-.34-.76-.76-.76s-.76.34-.76.76v1.09s-.02,1.54-.02,1.54c0,.34-.12.66-.31.91h1.24c.34,0,.61-.27.61-.61v-2.55h0v-.17Z"/><g id="Layer_1-2"><path class="cls-1" d="m76.53,61.48l-5.03-5.67h2.13c.19,0,.35-.11.42-.29l.83-2.02,1.63,4.17c.07.18.24.3.43.3h0c.19,0,.36-.12.43-.3l.98-1.85,3.2-.02-5.03,5.67h0Z"/><path class="cls-1" d="m82.54,54.7l-.17.19h-2.63s-1.65.02-1.83.03c-.18,0-.34.12-.4.3l-.57,1.03-1.62-4.14c-.07-.18-.24-.29-.42-.29s-.36.11-.43.29l-1.15,2.79h-2.65l-.17-.19h0c-.55-.61-.89-1.42-.89-2.3,0-1.91,1.55-3.45,3.45-3.45.86,0,1.64.31,2.24.83h0l1.21.98,1.21-.98h0c.61-.51,1.39-.83,2.24-.83,1.91,0,3.45,1.54,3.45,3.45,0,.89-.34,1.69-.89,2.3h0Z"/></g><g id="Layer_1-2-2"><path class="cls-1" d="m101.23,51.85l-7.7-2.96c-.12-.04-.25-.04-.37,0l-7.6,2.92c-.37.14-.37.6,0,.74l7.69,2.96c.12.04.25.04.37,0l7.6-2.92c.37-.14.37-.6,0-.74"/><path class="cls-1" d="m98.05,55.18l-4.36,1.71c-.19.07-.4.07-.59,0l-4.36-1.71c-.18-.07-.36.06-.36.25v4.09c0,1.01,2.25,1.83,5.02,1.83s5.02-.82,5.02-1.83v-4.09c0-.19-.19-.31-.36-.25"/><path class="cls-1" d="m100.83,57.66v-3.51c0-.06-.06-.11-.13-.09l-.81.29s-.06.05-.06.09v3.24c-.27.17-.44.47-.44.81s.18.64.44.81h0s-.1,1.06-.1,1.06c-.01.14.09.26.23.26h.72c.14,0,.25-.12.23-.25l-.09-1.05c.28-.17.47-.47.47-.82s-.19-.66-.48-.83"/></g><path class="cls-1" d="m83.48,60.59l.55-2.22.14.64c-.21,0-.39-.07-.53-.2-.14-.13-.21-.31-.21-.54s.07-.4.21-.54c.14-.14.32-.21.52-.21s.39.07.52.21.2.32.2.53c0,.07,0,.15-.02.21-.01.07-.03.15-.06.24-.03.09-.06.2-.12.33l-.52,1.53h-.69Z"/><path class="cls-1" d="m86.32,36.48c-.71,0-1.38-.12-1.99-.35s-1.14-.57-1.59-1-.8-.94-1.05-1.52c-.25-.58-.38-1.22-.38-1.92s.13-1.34.38-1.92c.25-.58.61-1.09,1.06-1.52.45-.43.99-.76,1.6-1s1.28-.35,1.99-.35c.8,0,1.53.14,2.18.42.65.28,1.2.69,1.64,1.22l-1.39,1.27c-.31-.36-.66-.64-1.05-.82-.39-.19-.82-.28-1.28-.28-.43,0-.83.07-1.19.22s-.67.35-.94.62c-.26.26-.47.58-.62.94-.14.36-.22.76-.22,1.2s.07.84.22,1.2c.15.36.35.67.62.94s.58.47.94.62.76.22,1.19.22c.46,0,.88-.1,1.28-.28.39-.19.74-.47,1.05-.83l1.39,1.27c-.44.54-.99.95-1.64,1.23-.65.28-1.39.42-2.2.42Z"/><path class="cls-1" d="m43.47,59.36v-7.26l.47.52h-2.21v-.96h2.83v7.7h-1.09Z"/><path class="cls-1" d="m111.06,58.93c-.55,0-1.04-.14-1.46-.42s-.77-.69-1.02-1.22c-.25-.53-.38-1.18-.38-1.94s.12-1.41.38-1.94c.25-.53.59-.94,1.02-1.22s.92-.42,1.46-.42,1.03.14,1.46.42.77.69,1.02,1.22c.25.53.37,1.18.37,1.94s-.12,1.41-.37,1.94c-.25.53-.59.94-1.02,1.22s-.92.42-1.46.42Zm0-.89c.37,0,.69-.1.96-.3.28-.2.49-.5.65-.9.16-.4.24-.9.24-1.49s-.08-1.09-.24-1.49c-.16-.4-.37-.7-.65-.9-.28-.2-.6-.3-.96-.3s-.69.1-.97.3c-.28.2-.5.5-.66.9-.16.4-.23.9-.23,1.49s.08,1.09.23,1.49c.16.4.38.7.66.9.28.2.6.3.97.3Z"/></g></svg>