<?xml version="1.0" encoding="UTF-8"?><svg id="Layer_2" xmlns="http://www.w3.org/2000/svg" viewBox="0 0 124.66 68.04"><defs><style>.cls-1{fill:#fff;}.cls-2{fill:#c00d0d;}.cls-3{fill:none;stroke:#fff;stroke-miterlimit:10;stroke-width:.5px;}</style></defs><g id="Layer_2-2"><rect class="cls-2" width="124.66" height="68.04"/><path class="cls-1" d="m9.19,21.69l3.17-7h.99l3.18,7h-1.05l-2.83-6.44h.4l-2.83,6.44h-1.03Zm1.35-1.75l.27-.8h3.94l.29.8h-4.5Z"/><line class="cls-3" x1="12.86" y1="29.17" x2="12.86" y2="64.17"/><path class="cls-1" d="m71.19,27.76v-.79h4.48v.79h-4.48Zm0,2.37v-.79h4.48v.79h-4.48Z"/><path class="cls-1" d="m80.68,32.13c-.55,0-1.04-.14-1.46-.42s-.77-.69-1.02-1.22c-.25-.53-.38-1.18-.38-1.94s.12-1.41.38-1.94c.25-.53.59-.94,1.02-1.22s.92-.42,1.46-.42,1.03.14,1.46.42.77.69,1.02,1.22c.25.53.37,1.18.37,1.94s-.12,1.41-.37,1.94c-.25.53-.59.94-1.02,1.22s-.92.42-1.46.42Zm0-.89c.37,0,.69-.1.96-.3.28-.2.49-.5.65-.9.16-.4.24-.9.24-1.49s-.08-1.09-.24-1.49c-.16-.4-.37-.7-.65-.9-.28-.2-.6-.3-.96-.3s-.69.1-.97.3c-.28.2-.5.5-.66.9-.16.4-.23.9-.23,1.49s.08,1.09.23,1.49c.16.4.38.7.66.9.28.2.6.3.97.3Z"/><path class="cls-1" d="m89.83,28.1h-2.34l-.41-1.16h3.13l-.39,1.16Zm-1.14,3.39l-1.02-2.88h1.99l-.97,2.88Zm2.24-5.07l.46-1.36h-.54l-.46,1.36h-3.49l-.48-1.36h-.54l.48,1.36h-1.54l.18.51h1.54l.41,1.16h-1.6l.18.51h1.6l1.2,3.41h.72l1.15-3.41h1.54l.18-.51h-1.55l.39-1.16h1.51l.18-.51h-1.52Z"/><path class="cls-1" d="m62.79,58.94h-.68c-.21,0-.38-.17-.38-.38s.17-.38.38-.38h.68c.21,0,.38.17.38.38s-.17.38-.38.38m0,1.67h-.68c-.21,0-.38-.17-.38-.38s.17-.38.38-.38h.68c.21,0,.38.17.38.38s-.17.38-.38.38m0,1.67h-.68c-.21,0-.38-.17-.38-.38,0-.1.07-.24.17-.31.06-.04.13-.07.2-.07h.68c.05,0,.14.03.2.07.09.04.17.18.17.31,0,.21-.17.38-.38.38m-2.27-3.33h-5.06c-.21,0-.38-.17-.38-.38s.17-.38.38-.38h5.06c.21,0,.38.17.38.38s-.17.38-.38.38m0,1.67h-5.06c-.21,0-.38-.17-.38-.38s.17-.38.38-.38h5.06c.21,0,.38.17.38.38s-.17.38-.38.38m0,1.67h-5.06c-.21,0-.38-.17-.38-.38,0-.1.07-.24.17-.31.06-.04.13-.07.2-.07h5.06c.05,0,.14.03.2.07.09.04.17.18.17.31,0,.21-.17.38-.38.38m2.97-5.8h-9.85c.13.23.21.48.21.76v.32h0s0,.27,0,.61v5c0,.4.33.73.73.73h8.82c.41,0,.73-.33.73-.73v-6.02c0-.37-.3-.67-.66-.67"/><path class="cls-1" d="m52.91,51.37c.06-.4.44-.67.84-.61.4.06.67.44.61.84-.06.4-.44.67-.84.61-.4-.06-.67-.44-.61-.84m3.74-.34c.07.05.13.19.13.3,0,.12-.04.22-.12.31l-2.86,2.98c-.07.09-.25.15-.38.13-.06,0-.16-.05-.23-.11-.07-.05-.13-.19-.13-.3,0-.12.04-.22.12-.31l2.85-2.98c.17-.17.44-.18.61-.01m.29,3.29c-.06.4-.44.67-.84.61-.4-.06-.67-.44-.61-.84s.44-.67.84-.61c.4.06.67.44.61.84m-4.65,1.37h7.37c.44,0,.79-.35.79-.79v-4.7c0-.36-.32-.65-.71-.65h-9.78c-.39,0-.71.29-.71.65v9.45h0v.23c-.02.24.16.54.4.67.11.06.23.1.36.1.42,0,.76-.34.76-.76v-1.09s.02-1.54.02-1.54c0-.84.68-1.52,1.51-1.54h0Z"/><path class="cls-1" d="m53.08,57.45v-.22c0-.42-.34-.76-.76-.76s-.76.34-.76.76v1.09s-.02,1.54-.02,1.54c0,.34-.12.66-.31.91h1.24c.34,0,.61-.27.61-.61v-2.55h0v-.17Z"/><g id="Layer_1-2"><path class="cls-1" d="m56.21,36.5l-6.75-7.6h2.86c.25,0,.47-.15.57-.38l1.12-2.7,2.19,5.6c.09.24.32.4.58.4h0c.26,0,.49-.16.58-.4l1.31-2.48,4.29-.03-6.75,7.61h0Z"/><path class="cls-1" d="m64.28,27.4l-.22.26h-3.53s-2.21.03-2.45.04c-.24.01-.45.17-.54.4l-.76,1.38-2.17-5.55c-.09-.24-.32-.39-.57-.39s-.48.15-.58.38l-1.55,3.74h-3.55l-.22-.26h0c-.73-.82-1.19-1.9-1.19-3.09,0-2.56,2.08-4.63,4.63-4.63,1.15,0,2.2.42,3.01,1.12h0l1.62,1.31,1.62-1.32h0c.81-.69,1.86-1.11,3.01-1.11,2.56,0,4.63,2.07,4.63,4.63,0,1.19-.45,2.27-1.19,3.09h0Z"/></g><path class="cls-1" d="m67.8,56.39c-.16,0-.3-.06-.42-.17-.12-.11-.17-.26-.17-.43s.06-.32.17-.43c.12-.11.26-.17.42-.17s.29.06.41.17c.11.11.17.25.17.43s-.06.32-.17.43c-.11.11-.25.17-.41.17Zm0,3.53c-.16,0-.3-.06-.42-.17-.12-.11-.17-.26-.17-.43s.06-.32.17-.43c.12-.11.26-.17.42-.17s.29.06.41.17c.11.11.17.25.17.43s-.06.32-.17.43c-.11.11-.25.17-.41.17Z"/><path class="cls-1" d="m71.42,56.91v-.79h4.48v.79h-4.48Zm1.82,1.79v-4.38h.84v4.38h-.84Z"/><path class="cls-1" d="m77.44,59.45v-.68l2.85-2.75c.25-.24.44-.45.57-.64.12-.18.21-.35.25-.51.04-.16.06-.31.06-.46,0-.36-.13-.64-.38-.85-.25-.21-.62-.31-1.11-.31-.37,0-.71.06-1.01.19-.3.12-.56.31-.78.58l-.68-.59c.27-.34.62-.6,1.08-.79s.95-.28,1.49-.28c.49,0,.91.08,1.27.24.36.16.64.38.83.67.2.29.29.64.29,1.04,0,.23-.03.45-.09.67-.06.22-.17.45-.34.7-.17.25-.41.52-.72.83l-2.54,2.45-.24-.39h4.23v.87h-5.03Z"/></g></svg>