<?xml version="1.0" encoding="UTF-8"?><svg id="Layer_2" xmlns="http://www.w3.org/2000/svg" viewBox="0 0 124.66 68.04"><defs><style>.cls-1{fill:#fff;}.cls-2{fill:#c00d0d;}.cls-3{fill:none;stroke:#fff;stroke-miterlimit:10;stroke-width:.5px;}</style></defs><g id="Layer_2-2"><rect class="cls-2" width="124.66" height="68.04"/><path class="cls-1" d="m56.76,47.3l-6.75-7.6h2.86c.25,0,.47-.15.57-.38l1.12-2.7,2.19,5.6c.09.24.32.4.58.4h0c.26,0,.49-.16.58-.4l1.31-2.48,4.29-.03-6.75,7.61h0Z"/><path class="cls-1" d="m79.98,42.4v-6.6l.43.47h-2.01v-.87h2.57v7h-.99Z"/><line class="cls-3" x1="12.94" y1="28.68" x2="12.94" y2="63.68"/><path class="cls-1" d="m13.45,21.28c-.53,0-1.02-.09-1.47-.27-.45-.18-.84-.43-1.17-.75-.33-.32-.59-.7-.78-1.13-.19-.43-.28-.91-.28-1.43s.09-1,.28-1.43c.19-.43.45-.81.78-1.13s.72-.57,1.17-.75.94-.27,1.48-.27,1.04.09,1.49.27c.46.18.85.46,1.17.81l-.65.63c-.27-.28-.57-.49-.9-.62s-.69-.21-1.07-.21-.76.07-1.1.2c-.34.13-.63.32-.88.56-.25.24-.44.53-.58.85-.14.33-.2.69-.2,1.08s.07.75.2,1.08c.14.33.33.61.58.85.25.24.54.43.88.56s.7.2,1.1.2.74-.07,1.07-.21c.33-.14.63-.35.9-.63l.65.63c-.32.36-.71.63-1.17.82-.46.19-.96.28-1.5.28Z"/><path class="cls-1" d="m72.17,38.11v-.79h4.48v.79h-4.48Zm0,2.37v-.79h4.48v.79h-4.48Z"/><path class="cls-1" d="m86.36,42.48c-.55,0-1.04-.14-1.46-.42s-.77-.69-1.02-1.22c-.25-.53-.38-1.18-.38-1.94s.12-1.41.38-1.94c.25-.53.59-.94,1.02-1.22s.92-.42,1.46-.42,1.03.14,1.46.42.77.69,1.02,1.22c.25.53.37,1.18.37,1.94s-.12,1.41-.37,1.94c-.25.53-.59.94-1.02,1.22s-.92.42-1.46.42Zm0-.89c.37,0,.69-.1.96-.3.28-.2.49-.5.65-.9.16-.4.24-.9.24-1.49s-.08-1.09-.24-1.49c-.16-.4-.37-.7-.65-.9-.28-.2-.6-.3-.96-.3s-.69.1-.97.3c-.28.2-.5.5-.66.9-.16.4-.23.9-.23,1.49s.08,1.09.23,1.49c.16.4.38.7.66.9.28.2.6.3.97.3Z"/><path class="cls-1" d="m64.83,38.2l-.22.26h-3.53s-2.21.03-2.45.04c-.24.01-.45.17-.54.4l-.76,1.38-2.17-5.55c-.09-.24-.32-.39-.57-.39s-.48.15-.58.38l-1.55,3.74h-3.55l-.22-.26h0c-.73-.82-1.19-1.9-1.19-3.09,0-2.56,2.08-4.63,4.63-4.63,1.15,0,2.2.42,3.01,1.12h0l1.62,1.31,1.62-1.32h0c.81-.69,1.86-1.11,3.01-1.11,2.56,0,4.63,2.07,4.63,4.63,0,1.19-.45,2.27-1.19,3.09h0Z"/><path class="cls-1" d="m95.7,38.39h-2.34l-.41-1.16h3.13l-.39,1.16Zm-1.14,3.39l-1.02-2.88h1.99l-.97,2.88Zm2.24-5.07l.46-1.36h-.54l-.46,1.36h-3.49l-.48-1.36h-.54l.48,1.36h-1.54l.18.51h1.54l.41,1.16h-1.6l.18.51h1.6l1.2,3.41h.72l1.15-3.41h1.54l.18-.51h-1.55l.39-1.16h1.51l.18-.51h-1.52Z"/></g></svg>