<?xml version="1.0" encoding="UTF-8"?><svg id="Layer_2" xmlns="http://www.w3.org/2000/svg" viewBox="0 0 124.66 68.04"><defs><style>.cls-1{fill:#fff;}.cls-2{fill:#b25099;}.cls-3{fill:none;stroke:#fff;stroke-miterlimit:10;stroke-width:.5px;}</style></defs><g id="Layer_2-2"><rect class="cls-2" width="124.66" height="68.04"/><line class="cls-3" x1="12.94" y1="28.82" x2="12.94" y2="63.83"/><path class="cls-1" d="m9.3,21.35v-7h3.14c.81,0,1.43.16,1.86.48.43.32.65.77.65,1.33,0,.38-.08.7-.25.96-.17.26-.4.46-.69.6-.29.14-.6.21-.93.21l.18-.3c.4,0,.75.07,1.06.21.31.14.55.34.73.61.18.27.27.6.27,1,0,.6-.23,1.06-.68,1.4-.45.33-1.12.5-2,.5h-3.34Zm1-.81h2.3c.55,0,.98-.09,1.27-.28.29-.19.44-.48.44-.88s-.15-.7-.44-.89c-.29-.19-.72-.28-1.27-.28h-2.39v-.81h2.14c.51,0,.9-.09,1.18-.28.28-.19.42-.47.42-.84s-.14-.65-.42-.84c-.28-.19-.67-.28-1.18-.28h-2.05v5.38Z"/><path class="cls-1" d="m38.39,55.71c-.17,0-.31-.06-.43-.18-.12-.12-.18-.27-.18-.45s.06-.33.18-.44c.12-.11.26-.17.43-.17s.3.06.42.17c.12.11.18.26.18.44s-.06.33-.18.45-.26.18-.42.18Zm0,3.64c-.17,0-.31-.06-.43-.18-.12-.12-.18-.27-.18-.45s.06-.33.18-.44c.12-.11.26-.17.43-.17s.3.06.42.17c.12.11.18.26.18.44s-.06.33-.18.45c-.12.12-.26.18-.42.18Z"/><path class="cls-1" d="m104.86,55.44c-.17,0-.31-.06-.43-.18-.12-.12-.18-.27-.18-.45s.06-.33.18-.44c.12-.11.26-.17.43-.17s.3.06.42.17c.12.11.18.26.18.44s-.06.33-.18.45-.26.18-.42.18Zm0,3.64c-.17,0-.31-.06-.43-.18-.12-.12-.18-.27-.18-.45s.06-.33.18-.44c.12-.11.26-.17.43-.17s.3.06.42.17c.12.11.18.26.18.44s-.06.33-.18.45c-.12.12-.26.18-.42.18Z"/><path class="cls-1" d="m72.89,34.92h-1.17c-.36,0-.64-.29-.64-.64s.29-.64.64-.64h1.17c.36,0,.64.29.64.64s-.29.64-.64.64m0,2.85h-1.17c-.36,0-.64-.29-.64-.64s.29-.64.64-.64h1.17c.36,0,.64.29.64.64s-.29.64-.64.64m0,2.85h-1.17c-.36,0-.64-.29-.64-.64-.01-.18.12-.41.29-.53.1-.07.22-.12.35-.12h1.17c.09,0,.25.05.35.12.16.07.29.3.29.53,0,.36-.29.64-.64.64m-3.88-5.71h-8.66c-.36,0-.64-.29-.64-.64s.29-.64.64-.64h8.66c.36,0,.64.29.64.64s-.29.64-.64.64m0,2.85h-8.66c-.36,0-.64-.29-.64-.64s.29-.64.64-.64h8.66c.36,0,.64.29.64.64s-.29.64-.64.64m0,2.85h-8.66c-.36,0-.64-.29-.64-.64-.01-.18.12-.41.29-.53.1-.07.22-.12.35-.12h8.66c.09,0,.25.05.35.12.16.07.29.3.29.53,0,.36-.29.64-.64.64m5.09-9.94h-16.86c.22.39.36.83.36,1.3v.55h0s0,.47,0,1.05v8.55c0,.69.56,1.26,1.26,1.26h15.11c.69,0,1.26-.56,1.26-1.26v-10.31c0-.63-.51-1.14-1.14-1.14"/><path class="cls-1" d="m55.96,21.96c.11-.68.75-1.15,1.44-1.04.68.11,1.15.75,1.04,1.44-.11.68-.75,1.15-1.44,1.04-.68-.11-1.15-.75-1.04-1.44m6.4-.59c.12.09.22.32.23.52,0,.2-.07.38-.21.53l-4.89,5.1c-.13.16-.42.25-.65.22-.1,0-.28-.09-.39-.2-.12-.09-.22-.32-.23-.52,0-.2.07-.38.21-.53l4.89-5.1c.28-.29.75-.3,1.04-.02m.49,5.63c-.11.68-.75,1.15-1.44,1.04-.68-.11-1.15-.75-1.04-1.44s.75-1.15,1.44-1.04c.68.11,1.15.75,1.04,1.44m-7.96,2.35h12.62c.75,0,1.35-.61,1.35-1.35v-8.05c0-.62-.55-1.12-1.22-1.12h-16.75c-.67,0-1.22.5-1.22,1.12v16.18h-.02v.39c-.03.41.28.92.69,1.14.18.1.39.16.62.16.72,0,1.3-.58,1.3-1.3v-1.87s.03-2.64.03-2.64c0-1.44,1.16-2.61,2.59-2.64h0Z"/><path class="cls-1" d="m56.26,32.39v-.38c0-.72-.59-1.3-1.3-1.3s-1.3.59-1.3,1.3v1.87s-.03,2.65-.03,2.65c0,.59-.2,1.13-.53,1.57h2.13c.58,0,1.05-.47,1.05-1.05v-4.36h-.02v-.29Z"/><path class="cls-1" d="m34.44,58.12h-.68c-.21,0-.38-.17-.38-.38s.17-.38.38-.38h.68c.21,0,.38.17.38.38s-.17.38-.38.38m0,1.67h-.68c-.21,0-.38-.17-.38-.38s.17-.38.38-.38h.68c.21,0,.38.17.38.38s-.17.38-.38.38m0,1.67h-.68c-.21,0-.38-.17-.38-.38,0-.1.07-.24.17-.31.06-.04.13-.07.2-.07h.68c.05,0,.14.03.2.07.09.04.17.18.17.31,0,.21-.17.38-.38.38m-2.27-3.33h-5.06c-.21,0-.38-.17-.38-.38s.17-.38.38-.38h5.06c.21,0,.38.17.38.38s-.17.38-.38.38m0,1.67h-5.06c-.21,0-.38-.17-.38-.38s.17-.38.38-.38h5.06c.21,0,.38.17.38.38s-.17.38-.38.38m0,1.67h-5.06c-.21,0-.38-.17-.38-.38,0-.1.07-.24.17-.31.06-.04.13-.07.2-.07h5.06c.05,0,.14.03.2.07.09.04.17.18.17.31,0,.21-.17.38-.38.38m2.97-5.8h-9.85c.13.23.21.48.21.76v.32h0s0,.27,0,.61v5c0,.4.33.73.73.73h8.82c.41,0,.73-.33.73-.73v-6.02c0-.37-.3-.67-.66-.67"/><path class="cls-1" d="m24.55,50.55c.06-.4.44-.67.84-.61.4.06.67.44.61.84-.06.4-.44.67-.84.61-.4-.06-.67-.44-.61-.84m3.74-.34c.07.05.13.19.13.3,0,.12-.04.22-.12.31l-2.86,2.98c-.07.09-.25.15-.38.13-.06,0-.16-.05-.23-.11-.07-.05-.13-.19-.13-.3,0-.12.04-.22.12-.31l2.85-2.98c.17-.17.44-.18.61-.01m.29,3.29c-.06.4-.44.67-.84.61-.4-.06-.67-.44-.61-.84s.44-.67.84-.61c.4.06.67.44.61.84m-4.65,1.37h7.37c.44,0,.79-.35.79-.79v-4.7c0-.36-.32-.65-.71-.65h-9.78c-.39,0-.71.29-.71.65v9.45h0v.23c-.02.24.16.54.4.67.11.06.23.1.36.1.42,0,.76-.34.76-.76v-1.09s.02-1.54.02-1.54c0-.84.68-1.52,1.51-1.54h0Z"/><path class="cls-1" d="m24.72,56.64v-.22c0-.42-.34-.76-.76-.76s-.76.34-.76.76v1.09s-.02,1.54-.02,1.54c0,.34-.12.66-.31.91h1.24c.34,0,.61-.27.61-.61v-2.55h0v-.17Z"/><g id="Layer_1-2"><path class="cls-1" d="m76.56,61.63l-5.03-5.67h2.13c.19,0,.35-.11.42-.29l.83-2.02,1.63,4.17c.07.18.24.3.43.3h0c.19,0,.36-.12.43-.3l.98-1.85,3.2-.02-5.03,5.67h0Z"/><path class="cls-1" d="m82.58,54.85l-.17.19h-2.63s-1.65.02-1.83.03c-.18,0-.34.12-.4.3l-.57,1.03-1.62-4.14c-.07-.18-.24-.29-.42-.29s-.36.11-.43.29l-1.15,2.79h-2.65l-.17-.19h0c-.55-.61-.89-1.42-.89-2.3,0-1.91,1.55-3.45,3.45-3.45.86,0,1.64.31,2.24.83h0l1.21.98,1.21-.98h0c.61-.51,1.39-.83,2.24-.83,1.91,0,3.45,1.54,3.45,3.45,0,.89-.34,1.69-.89,2.3h0Z"/></g><g id="Layer_1-2-2"><path class="cls-1" d="m101.26,52l-7.7-2.96c-.12-.04-.25-.04-.37,0l-7.6,2.92c-.37.14-.37.6,0,.74l7.69,2.96c.12.04.25.04.37,0l7.6-2.92c.37-.14.37-.6,0-.74"/><path class="cls-1" d="m98.08,55.33l-4.36,1.71c-.19.07-.4.07-.59,0l-4.36-1.71c-.18-.07-.36.06-.36.25v4.09c0,1.01,2.25,1.83,5.02,1.83s5.02-.82,5.02-1.83v-4.09c0-.19-.19-.31-.36-.25"/><path class="cls-1" d="m100.86,57.81v-3.51c0-.06-.06-.11-.13-.09l-.81.29s-.06.05-.06.09v3.24c-.27.17-.44.47-.44.81s.18.64.44.81h0s-.1,1.06-.1,1.06c-.01.14.09.26.23.26h.72c.14,0,.25-.12.23-.25l-.09-1.05c.28-.17.47-.47.47-.82s-.19-.66-.48-.83"/></g><path class="cls-1" d="m83.51,60.74l.55-2.22.14.64c-.21,0-.39-.07-.53-.2-.14-.13-.21-.31-.21-.54s.07-.4.21-.54c.14-.14.32-.21.52-.21s.39.07.52.21.2.32.2.53c0,.07,0,.15-.02.21-.01.07-.03.15-.06.24-.03.09-.06.2-.12.33l-.52,1.53h-.69Z"/><path class="cls-1" d="m81.37,36.63v-9.58h4.68c1.2,0,2.11.23,2.72.68.61.46.91,1.06.91,1.81,0,.5-.12.94-.37,1.31s-.59.66-1.02.86c-.43.2-.92.3-1.47.3l.26-.57c.6,0,1.13.1,1.59.3.46.2.82.49,1.09.88.26.38.4.85.4,1.41,0,.82-.32,1.46-.97,1.92-.65.46-1.6.69-2.86.69h-4.95Zm2.2-1.67h2.6c.57,0,1-.1,1.3-.29.3-.19.45-.49.45-.89s-.15-.71-.45-.9c-.3-.19-.74-.29-1.3-.29h-2.77v-1.62h2.37c.54,0,.95-.09,1.24-.28.29-.19.43-.47.43-.86s-.14-.67-.43-.85c-.29-.18-.7-.27-1.24-.27h-2.2v6.24Z"/><path class="cls-1" d="m41.99,59.55v-.75l3.13-3.03c.28-.26.49-.5.62-.7.14-.2.23-.39.28-.56.05-.17.07-.34.07-.5,0-.4-.14-.71-.42-.93-.28-.23-.69-.34-1.22-.34-.41,0-.78.07-1.11.2s-.62.35-.86.63l-.75-.65c.29-.37.69-.66,1.18-.86.49-.2,1.04-.3,1.63-.3.54,0,1,.09,1.4.26.4.17.7.42.92.74.22.32.33.7.33,1.14,0,.25-.03.49-.1.74-.07.24-.19.5-.37.77s-.45.58-.79.91l-2.79,2.69-.26-.43h4.65v.96h-5.53Z"/><path class="cls-1" d="m108.24,59.16l2.51-3.26v.54s-2.4-3.11-2.4-3.11h1.18l1.83,2.4h-.45l1.83-2.4h1.16l-2.42,3.13v-.56s2.54,3.26,2.54,3.26h-1.2l-1.92-2.55.43.07-1.89,2.49h-1.18Z"/><path class="cls-1" d="m118.74,59.16v-7.26l.47.52h-2.21v-.96h2.83v7.7h-1.09Z"/></g></svg>