<?xml version="1.0" encoding="UTF-8"?><svg id="Layer_2" xmlns="http://www.w3.org/2000/svg" viewBox="0 0 124.66 68.04"><defs><style>.cls-1{fill:#fff;}.cls-2{fill:#fdc300;}.cls-3{fill:#7d73a2;}.cls-4{fill:none;stroke:#fff;stroke-miterlimit:10;stroke-width:.5px;}</style></defs><g id="Layer_2-2"><rect class="cls-3" width="124.66" height="68.04"/><line class="cls-4" x1="12.94" y1="28.82" x2="12.94" y2="63.83"/><path class="cls-1" d="m9.93,21.35v-7h3.14c.81,0,1.43.16,1.86.48.43.32.65.77.65,1.33,0,.38-.08.7-.25.96-.17.26-.4.46-.69.6-.29.14-.6.21-.93.21l.18-.3c.4,0,.75.07,1.06.21.31.14.55.34.73.61.18.27.27.6.27,1,0,.6-.23,1.06-.68,1.4-.45.33-1.12.5-2,.5h-3.34Zm1-.81h2.3c.55,0,.98-.09,1.27-.28.29-.19.44-.48.44-.88s-.15-.7-.44-.89c-.29-.19-.72-.28-1.27-.28h-2.39v-.81h2.14c.51,0,.9-.09,1.18-.28.28-.19.42-.47.42-.84s-.14-.65-.42-.84c-.28-.19-.67-.28-1.18-.28h-2.05v5.38Z"/><g id="Layer_1-2"><path class="cls-1" d="m60.73,46.03c-1.02.32-1.59,1.41-1.26,2.43l-15.35,4.83c-.32-1.02-1.41-1.59-2.43-1.27l-1.35-4.29c1.02-.32,1.59-1.41,1.26-2.43l15.35-4.83c.32,1.02,1.41,1.59,2.43,1.27l1.35,4.29Zm-22.69-.75l3.16,10.06,21.82-6.86-3.16-10.06-21.82,6.86Z"/><path class="cls-1" d="m44.06,47.64c-.64.2-.99.88-.79,1.52.2.64.88.99,1.52.79.64-.2.99-.88.79-1.52-.2-.64-.88-.99-1.52-.79"/><path class="cls-1" d="m56.27,43.8c-.64.2-.99.88-.79,1.52.2.64.88.99,1.52.79s.99-.88.79-1.52c-.2-.64-.88-.99-1.52-.79"/><path class="cls-1" d="m42.82,42.82c.17-.49.15-1.05-.12-1.54l14.17-7.64c.51.95,1.68,1.3,2.63.78l2.14,3.96c-.27.15-.48.34-.64.58l.86,2.74,2.5-1.35-5-9.27-20.14,10.85.93,1.73,2.69-.85h0Z"/><path class="cls-1" d="m58.47,37.53c-.32-.59-1.05-.81-1.64-.49-.55.3-.77.97-.53,1.54l2.28-.72c-.02-.11-.06-.23-.11-.33"/><path class="cls-1" d="m58.05,30.35c-.44-.5-1.21-.55-1.7-.1-.5.44-.54,1.2-.11,1.7.79-.43,1.49-.81,2.06-1.12-.05-.17-.12-.33-.25-.48"/><path class="cls-1" d="m44.02,38.59c-.06-.35-.2-.69-.46-.97l12.02-10.7c.71.8,1.93.87,2.74.16l2.98,3.36c-.3.26-.5.6-.59.96l1.32,2.42,2.36-2.1-7-7.87-17.09,15.19.95,1.06c.72-.41,1.67-.93,2.76-1.53"/><path class="cls-1" d="m51.36,46.89l-.04,1.35-.8-1.08.84-.25h0Zm-1.59-.77l1.63-.49-.02.46-1.34.41-.28-.38h0Zm2.36.55l1.06-.32.03-.81-1.07.33.02-.46,1.04-.32.03-.81-1.05.32.03-1.04-.77.23-.03,1.04-2.13.64-.61-.84-.77.24.61.84-1.06.32.47.65,1.06-.32.28.38-1.1.33.47.65,1.1-.33,1.53,2.1.77-.23.08-2.59h0Z"/></g><circle class="cls-1" cx="92.75" cy="40.08" r="9.89"/><path class="cls-1" d="m70.52,39.44v-.71h4.93v.71h-4.93Zm0,2.12v-.71h4.93v.71h-4.93Z"/><path class="cls-2" d="m88.16,43.27v-6.3h.9v5.52h3.41v.78h-4.31Z"/><path class="cls-2" d="m92.81,43.27v-.61l2.57-2.48c.23-.22.4-.41.51-.57.11-.16.19-.32.23-.46.04-.14.06-.28.06-.41,0-.32-.11-.58-.34-.77-.23-.19-.56-.28-1-.28-.34,0-.64.06-.91.17-.27.11-.5.28-.7.52l-.61-.53c.24-.31.56-.54.97-.71.4-.17.85-.25,1.34-.25.44,0,.82.07,1.14.21.32.14.57.34.75.61.18.26.27.58.27.94,0,.2-.03.41-.08.6-.05.2-.16.41-.31.63-.15.22-.37.47-.65.75l-2.29,2.21-.22-.35h3.81v.78h-4.53Z"/></g></svg>