<?xml version="1.0" encoding="UTF-8"?><svg id="Layer_2" xmlns="http://www.w3.org/2000/svg" viewBox="0 0 20 26.8"><defs><style>.cls-1{fill:#9d9d9c;}</style></defs><g id="Layer_2-2"><path class="cls-1" d="m13.46,24.33l-.69.36-.08.04c-.19.1-.39.16-.59.18-.06,0-.11,0-.17,0-.26,0-.52-.07-.76-.19-.19.66-.75,1.21-1.66,1.65l-.5.23-.41.19c1.76-.03,3.43-.38,4.94-1l-.08-1.41v-.06Z"/><path class="cls-1" d="m15.79,18.2l-1.52-.18-.09.78h.01s.05.87.05.87h.01c.33-.12.69-.08,1,.1.3.18.51.48.58.82l.22,1.2c.12.64-.19,1.28-.77,1.59l-.8.42.09,1.53c1.22-.62,2.32-1.43,3.26-2.39-.02-.07-.04-.14-.07-.21l-1.95-4.54Z"/><path class="cls-1" d="m7.66,13.86c-.23-.02-.44-.06-.65-.1l.02.1.59,2.44.02.08.75,3.08.61-3.08.04-.2.46-2.31.02-.09c-.19.04-.39.07-.6.09-.2.02-.41.03-.63.03s-.43-.01-.63-.03"/><path class="cls-1" d="m17.6,15.69h0s-.12,1.06-.12,1.06l-.84-.1.17-1.43-.83-.1-.17,1.43-.77-.09h-.07s.01-.13.01-.13l.11-.93h0s.25-2.14.25-2.14l.89-.32-.17,1.46.83.1.17-1.46.79.51-.25,2.13Zm-3.7-3.6l.05-.41c.03-.27-.16-.51-.43-.54-.02,0-.04,0-.06,0-.24,0-.45.18-.48.43l-.13,1.14-.1.87-.32,2.8-.07.61-.15,1.33-.11.96-.1.82.1.18.06.12.82-.28h0s.37-3.23.37-3.23h.11s1.85.23,1.85.23l4.13.48.55-4.78-6.1-.71Z"/><path class="cls-1" d="m8.32,11.31s-.03-.01-.04-.02c0,0-.02,0-.02,0-.32.08-.88-.25-1.18-.08-1.77,1.06-1.9-.33-1.68-.29.57.33.36-.46,1.12-1.18.55-.52,1.37.04,1.79.39.43-.34,1.25-.86,1.79-.33.75.74.51,1.53,1.09,1.22.23-.02.05,1.36-1.68.24-.29-.19-.87.13-1.18.04m1.39,1.53c.32-.1.59-.23.82-.39,1.32-.9,1.37-2.68,1.35-4.05-.12.02-.25.03-.38.05h0s-.02,0-.02,0c-1.02.13-2.02.2-2.99.21h0s0,0,0,0c-.08,0-.15,0-.23,0s-.16,0-.24,0h-.01c-1.32-.02-2.48-.14-3.27-.25-.03,1.68.07,3.98,2.48,4.5.33.07.69.11,1.11.11.5,0,.93-.06,1.3-.16.04-.01.08-.02.12-.04"/><path class="cls-1" d="m9.07,25.44c.65-.31,1.04-.68,1.12-1.06.08-.37-.14-.73-.34-.97-.2-.21-.47-.32-.84-.35-.38-.03-.85.03-1.44.18,0,0,0,0-.01,0l-3.3.86-.09.02-.88.23.08-1.97.14-3.7c.01-.29.25-.51.54-.5.04,0,.08,0,.11.02.03,0,.07.02.1.04.18.09.3.27.29.49l-.02.66-.14,3.61.58-.15,1.97-.51s-.03-.02-.04-.04l-1.01-1.09-.93-1.01c-.15-.17-.18-.41-.07-.61,0-.02.02-.03.03-.05l1.26-1.72-1.64-.42-.37-.09-.86-.22c-.07-.02-.13-.05-.19-.09-.07-.05-.12-.12-.16-.2-.06-.15-.06-.31.02-.46l1.19-2.23.07-.13.05-.1h-.12v.12l-1.84.65c-.58.21-1,.71-1.09,1.33l-1.23,8.24c1.77,1.35,3.94,2.19,6.34,2.48l1.24-.56,1.44-.65.06-.03Z"/><path class="cls-1" d="m15.02,21.99l-.22-1.2c-.01-.06-.05-.1-.08-.11-.02-.01-.07-.03-.14-.01l-.28.1-.36.12-.15.05-.33.11-.07.02h0s-.11.04-.11.04l-.47.16-.62.21-.09.03h-.02c-.24.09-.5-.02-.63-.24l-.07-.13-.31-.57-.18.06-.07.02s-.02,0-.03.01c-.08.04-.14.12-.16.21v.11s-.17,1.24-.17,1.24c-.02.18.03.36.15.49l.87.98c.15.17.39.24.61.17.03-.01.07-.02.1-.04l1.19-.63.07-.04.44-.23.24-.13.27-.14.38-.2c.17-.09.26-.28.23-.47"/><path class="cls-1" d="m3.88,7.22s0,0,0,0c.02,0,.17.03.42.08.12.02.26.04.43.07.75.11,1.92.25,3.26.26h.01c.08,0,.15,0,.23,0s.15,0,.23,0h0c1.12-.01,2.13-.11,2.88-.2h0c.19-.02.36-.05.51-.07.17-.02.31-.05.43-.07.21-.03.33-.06.35-.06.03,0,.05-.01.08-.02.26-.09.42-.36.37-.64-.05-.27-.29-.45-.55-.45-.03,0-.06,0-.08,0,0,0-.02,0-.03,0,0,0-.15.03-.41.07-.06,0-.12.02-.18.03h0c-.08.01-.16.02-.26.04-.61.09-1.67.19-3.33.19s-2.6-.1-3.2-.19c-.14-.02-.25-.04-.35-.06v.02s-.07-.01-.1-.02c-.22-.04-.37-.06-.43-.08-.02,0-.03,0-.03,0-.04,0-.08-.01-.11-.01-.26,0-.5.18-.55.45-.06.3.13.6.43.66"/><path class="cls-1" d="m5.2,5.23c.15.02.32.04.53.07.57.06,1.38.11,2.5.11,1.17,0,2.03-.05,2.62-.11.21-.02.39-.04.53-.06.2-.03.34-.05.43-.07V.56c0-.31-.25-.56-.56-.56h0s-.05,0-.07,0c-.19.02-.41.05-.66.07v3.99c0,.14-.05.26-.14.35-.1.1-.23.17-.38.17-.29,0-.52-.23-.52-.52V.16c-.23.01-.48.02-.73.03,0,0,0,0,0,0v4.47c0,.29-.23.52-.52.52s-.52-.23-.52-.52V.2s0,0,0,0c-.24,0-.48-.02-.7-.03v3.9h0c0,.29-.23.52-.52.52-.13,0-.25-.05-.34-.13-.11-.1-.18-.23-.18-.39h0V.08c-.24-.02-.46-.05-.65-.07-.02,0-.05,0-.07,0-.14,0-.27.05-.37.14-.12.11-.19.26-.19.42v4.57s.02,0,.04,0c.09.02.25.05.48.09"/><path class="cls-1" d="m15.79,18.2l-1.52-.18-.09.78h.01s.05.87.05.87h.01c.33-.12.69-.08,1,.1.3.18.51.48.58.82l.22,1.2c.12.64-.19,1.28-.77,1.59l-.8.42.09,1.53c1.22-.62,2.32-1.43,3.26-2.39-.02-.07-.04-.14-.07-.21l-1.95-4.54Z"/><path class="cls-1" d="m7.66,13.86c-.23-.02-.44-.06-.65-.1l.02.1.59,2.44.02.08.75,3.08.61-3.08.04-.2.46-2.31.02-.09c-.19.04-.39.07-.6.09-.2.02-.41.03-.63.03s-.43-.01-.63-.03"/><path class="cls-1" d="m17.6,15.69h0s-.12,1.06-.12,1.06l-.84-.1.17-1.43-.83-.1-.17,1.43-.77-.09h-.07s.01-.13.01-.13l.11-.93h0s.25-2.14.25-2.14l.89-.32-.17,1.46.83.1.17-1.46.79.51-.25,2.13Zm-3.7-3.6l.05-.41c.03-.27-.16-.51-.43-.54-.02,0-.04,0-.06,0-.24,0-.45.18-.48.43l-.13,1.14-.1.87-.32,2.8-.07.61-.15,1.33-.11.96-.1.82.1.18.06.12.82-.28h0s.37-3.23.37-3.23h.11s1.85.23,1.85.23l4.13.48.55-4.78-6.1-.71Z"/><path class="cls-1" d="m8.32,11.31s-.03-.01-.04-.02c0,0-.02,0-.02,0-.32.08-.88-.25-1.18-.08-1.77,1.06-1.9-.33-1.68-.29.57.33.36-.46,1.12-1.18.55-.52,1.37.04,1.79.39.43-.34,1.25-.86,1.79-.33.75.74.51,1.53,1.09,1.22.23-.02.05,1.36-1.68.24-.29-.19-.87.13-1.18.04m1.39,1.53c.32-.1.59-.23.82-.39,1.32-.9,1.37-2.68,1.35-4.05-.12.02-.25.03-.38.05h0s-.02,0-.02,0c-1.02.13-2.02.2-2.99.21h0s0,0,0,0c-.08,0-.15,0-.23,0s-.16,0-.24,0h-.01c-1.32-.02-2.48-.14-3.27-.25-.03,1.68.07,3.98,2.48,4.5.33.07.69.11,1.11.11.5,0,.93-.06,1.3-.16.04-.01.08-.02.12-.04"/><path class="cls-1" d="m9.07,25.44c.65-.31,1.04-.68,1.12-1.06.08-.37-.14-.73-.34-.97-.2-.21-.47-.32-.84-.35-.38-.03-.85.03-1.44.18,0,0,0,0-.01,0l-3.3.86-.09.02-.88.23.08-1.97.14-3.7c.01-.29.25-.51.54-.5.04,0,.08,0,.11.02.03,0,.07.02.1.04.18.09.3.27.29.49l-.02.66-.14,3.61.58-.15,1.97-.51s-.03-.02-.04-.04l-1.01-1.09-.93-1.01c-.15-.17-.18-.41-.07-.61,0-.02.02-.03.03-.05l1.26-1.72-1.64-.42-.37-.09-.86-.22c-.07-.02-.13-.05-.19-.09-.07-.05-.12-.12-.16-.2-.06-.15-.06-.31.02-.46l1.19-2.23.07-.13.05-.1h-.12v.12l-1.84.65c-.58.21-1,.71-1.09,1.33l-1.23,8.24c1.77,1.35,3.94,2.19,6.34,2.48l1.24-.56,1.44-.65.06-.03Z"/><path class="cls-1" d="m15.02,21.99l-.22-1.2c-.01-.06-.05-.1-.08-.11-.02-.01-.07-.03-.14-.01l-.28.1-.36.12-.15.05-.33.11-.07.02h0s-.11.04-.11.04l-.47.16-.62.21-.09.03h-.02c-.24.09-.5-.02-.63-.24l-.07-.13-.31-.57-.18.06-.07.02s-.02,0-.03.01c-.08.04-.14.12-.16.21v.11s-.17,1.24-.17,1.24c-.02.18.03.36.15.49l.87.98c.15.17.39.24.61.17.03-.01.07-.02.1-.04l1.19-.63.07-.04.44-.23.24-.13.27-.14.38-.2c.17-.09.26-.28.23-.47"/><path class="cls-1" d="m3.88,7.22s0,0,0,0c.02,0,.17.03.42.08.12.02.26.04.43.07.75.11,1.92.25,3.26.26h.01c.08,0,.15,0,.23,0s.15,0,.23,0h0c1.12-.01,2.13-.11,2.88-.2h0c.19-.02.36-.05.51-.07.17-.02.31-.05.43-.07.21-.03.33-.06.35-.06.03,0,.05-.01.08-.02.26-.09.42-.36.37-.64-.05-.27-.29-.45-.55-.45-.03,0-.06,0-.08,0,0,0-.02,0-.03,0,0,0-.15.03-.41.07-.06,0-.12.02-.18.03h0c-.08.01-.16.02-.26.04-.61.09-1.67.19-3.33.19s-2.6-.1-3.2-.19c-.14-.02-.25-.04-.35-.06v.02s-.07-.01-.1-.02c-.22-.04-.37-.06-.43-.08-.02,0-.03,0-.03,0-.04,0-.08-.01-.11-.01-.26,0-.5.18-.55.45-.06.3.13.6.43.66"/><path class="cls-1" d="m5.2,5.23c.15.02.32.04.53.07.57.06,1.38.11,2.5.11,1.17,0,2.03-.05,2.62-.11.21-.02.39-.04.53-.06.2-.03.34-.05.43-.07V.56c0-.31-.25-.56-.56-.56h0s-.05,0-.07,0c-.19.02-.41.05-.66.07v3.99c0,.14-.05.26-.14.35-.1.1-.23.17-.38.17-.29,0-.52-.23-.52-.52V.16c-.23.01-.48.02-.73.03,0,0,0,0,0,0v4.47c0,.29-.23.52-.52.52s-.52-.23-.52-.52V.2s0,0,0,0c-.24,0-.48-.02-.7-.03v3.9h0c0,.29-.23.52-.52.52-.13,0-.25-.05-.34-.13-.11-.1-.18-.23-.18-.39h0V.08c-.24-.02-.46-.05-.65-.07-.02,0-.05,0-.07,0-.14,0-.27.05-.37.14-.12.11-.19.26-.19.42v4.57s.02,0,.04,0c.09.02.25.05.48.09"/></g></svg>