<?xml version="1.0" encoding="UTF-8"?><svg id="Layer_2" xmlns="http://www.w3.org/2000/svg" viewBox="0 0 30.97 45.01"><defs><style>.cls-1{fill:#e30613;}</style></defs><g id="Layer_1-2"><path class="cls-1" d="m10.37,21.86l-.77.23.59,4.92.13,1.05.27,2.21v.11s8.5,0,8.5,0l.2-1.38-.96-.76c-.24-.19-.44-.42-.6-.69-.11-.17-.2-.34-.27-.53-.07-.19-.12-.39-.16-.59-.04-.27-.05-.55-.01-.82l.4-2.7.04-.29c.04-.25.11-.5.22-.73.08-.17.18-.33.29-.48l-.85-.32c4.23-.99,4.34-5.12,4.29-8.1-1.6.23-3.79.45-6.43.45s-4.72-.2-6.3-.43c-.05,2.93.06,6.99,4.13,8.04l-1.48.45-1.22.37Z"/><path class="cls-1" d="m8.07,11c.27.05.58.1.92.15,1.52.23,3.65.44,6.25.44s4.85-.23,6.38-.46c.34-.05.64-.1.92-.15.36-.07.67-.13.91-.18.38-.08.6-.14.63-.15.6-.17.96-.79.79-1.39-.14-.5-.59-.83-1.09-.83-.1,0-.2.01-.3.04,0,0-.24.06-.65.15-.06.01-.12.03-.19.04-.03-.22-.07-.43-.13-.64-.24-.99-.68-1.92-1.3-2.73l.14-.13c.46-.42.5-1.13.08-1.6-.22-.25-.53-.37-.84-.37-.27,0-.54.1-.76.29l-.25.22c-.94-.68-2.03-1.16-3.22-1.34v-1.22c0-.62-.51-1.13-1.13-1.13s-1.13.51-1.13,1.13v1.22c-1.2.19-2.3.67-3.24,1.35l-.19-.19c-.22-.22-.51-.33-.8-.33s-.58.11-.8.33c-.44.44-.44,1.16,0,1.6l.18.18c-.7.92-1.17,1.98-1.38,3.11-.01.09-.03.17-.04.26-.03,0-.05,0-.07-.01-.49-.1-.76-.17-.77-.17-.1-.03-.2-.04-.3-.04-.5,0-.95.33-1.09.83-.17.6.19,1.22.79,1.39.04,0,.3.08.76.18.25.05.55.11.91.18"/><path class="cls-1" d="m28.26,28.38c-.32.5-.79.9-1.33,1.12l-1.14.45-.58,3.94c.2.05.39.13.57.23.53.31.91.85,1.02,1.46l.4,2.13c.19,1.01-.22,2.01-1.03,2.6l-.23,2.12c1.84-.97,3.53-2.19,5.03-3.61l-2.71-10.45Z"/><path class="cls-1" d="m21.23,42.95c-.42.22-.88.33-1.33.33,0,0-.01,0-.02,0-.47,0-.93-.12-1.35-.34-.23.78-.75,1.47-1.55,2.08,2.45-.19,4.8-.76,6.98-1.65l.22-1.97-2.96,1.55Z"/><path class="cls-1" d="m18.5,33.5s.08-.02.12-.03l.18-1.25h-8.22s-1.63.01-1.63.01l-.44-3.63-.19-1.59-.5-4.1-.67.26-.15,3.85-.31,8.09-.18,4.6v.11s4.07-1.06,4.07-1.06l1.09-.28c.9-.24,2.01-.46,3.09-.39.24.02.48.05.72.1l.12-.95.18-1.4c.01-.08.03-.16.05-.23.18-.78.73-1.42,1.5-1.69l1.19-.42Z"/><path class="cls-1" d="m24.69,25.62l-1.68.67-.17-.13-.03-.02-1.28-1.01.34-2.33.21-1.43-1.54.61-.39.15s0,0,0,0c-.28.12-.55.46-.59.76l-.44,2.99c-.02.17.01.37.1.55.07.14.16.27.26.36l.3.23.14.11,1.24.98.12.1-.07.45-.03.2-.22,1.52-.27,1.85-.42,2.88.05.1,3-1.01.02-.13.11-.73.69-4.7.58-.23.05-.02,1.5-.6c.29-.11.56-.46.6-.76l.27-1.84.17-1.14c.04-.31-.12-.71-.36-.9l-1.63-1.29-.31,2.13-.24,1.63-.07.03Z"/><path class="cls-1" d="m14.95,44.12c.27-.13.51-.27.72-.42.24-.17.45-.34.62-.52.27-.28.45-.58.51-.88.14-.66-.25-1.3-.6-1.73-.12-.13-.26-.23-.42-.32-.27-.16-.59-.25-.96-.3-.69-.08-1.57.02-2.68.31l-1.56.41-4.3,1.12-1.72.45.36-9.42.37-9.42-1.04.31c-1.08.33-1.88,1.24-2.07,2.35l-2.19,13.22c3.54,3.16,8.07,5.23,13.07,5.7l1.75-.79s.09-.05.13-.07"/><path class="cls-1" d="m24.99,35.92c0-.05-.03-.09-.05-.12-.03-.04-.06-.06-.08-.08-.04-.03-.13-.06-.24-.02l-.09.03-.53.18-.32.11-.66.22-2.84.96c-.06.02-.13.03-.2.04-.02,0-.03,0-.05,0-.34.02-.67-.15-.84-.45,0-.01-.01-.02-.02-.03l-.22-.41-.46-.85-.05.02-.39.13c-.18.06-.3.22-.33.4l-.08.64-.22,1.76c-.04.32.06.64.27.88l1.54,1.74c.21.23.5.35.79.35.16,0,.32-.04.47-.12l1.71-.89,1.56-.82.58-.3.18-.09.57-.3c.31-.16.47-.5.41-.84l-.4-2.13Z"/><path class="cls-1" d="m10.37,21.86l-.77.23.59,4.92.13,1.05.27,2.21v.11s8.5,0,8.5,0l.2-1.38-.96-.76c-.24-.19-.44-.42-.6-.69-.11-.17-.2-.34-.27-.53-.07-.19-.12-.39-.16-.59-.04-.27-.05-.55-.01-.82l.4-2.7.04-.29c.04-.25.11-.5.22-.73.08-.17.18-.33.29-.48l-.85-.32c4.23-.99,4.34-5.12,4.29-8.1-1.6.23-3.79.45-6.43.45s-4.72-.2-6.3-.43c-.05,2.93.06,6.99,4.13,8.04l-1.48.45-1.22.37Z"/><path class="cls-1" d="m8.07,11c.27.05.58.1.92.15,1.52.23,3.65.44,6.25.44s4.85-.23,6.38-.46c.34-.05.64-.1.92-.15.36-.07.67-.13.91-.18.38-.08.6-.14.63-.15.6-.17.96-.79.79-1.39-.14-.5-.59-.83-1.09-.83-.1,0-.2.01-.3.04,0,0-.24.06-.65.15-.06.01-.12.03-.19.04-.03-.22-.07-.43-.13-.64-.24-.99-.68-1.92-1.3-2.73l.14-.13c.46-.42.5-1.13.08-1.6-.22-.25-.53-.37-.84-.37-.27,0-.54.1-.76.29l-.25.22c-.94-.68-2.03-1.16-3.22-1.34v-1.22c0-.62-.51-1.13-1.13-1.13s-1.13.51-1.13,1.13v1.22c-1.2.19-2.3.67-3.24,1.35l-.19-.19c-.22-.22-.51-.33-.8-.33s-.58.11-.8.33c-.44.44-.44,1.16,0,1.6l.18.18c-.7.92-1.17,1.98-1.38,3.11-.01.09-.03.17-.04.26-.03,0-.05,0-.07-.01-.49-.1-.76-.17-.77-.17-.1-.03-.2-.04-.3-.04-.5,0-.95.33-1.09.83-.17.6.19,1.22.79,1.39.04,0,.3.08.76.18.25.05.55.11.91.18"/><path class="cls-1" d="m28.26,28.38c-.32.5-.79.9-1.33,1.12l-1.14.45-.58,3.94c.2.05.39.13.57.23.53.31.91.85,1.02,1.46l.4,2.13c.19,1.01-.22,2.01-1.03,2.6l-.23,2.12c1.84-.97,3.53-2.19,5.03-3.61l-2.71-10.45Z"/><path class="cls-1" d="m21.23,42.95c-.42.22-.88.33-1.33.33,0,0-.01,0-.02,0-.47,0-.93-.12-1.35-.34-.23.78-.75,1.47-1.55,2.08,2.45-.19,4.8-.76,6.98-1.65l.22-1.97-2.96,1.55Z"/><path class="cls-1" d="m18.5,33.5s.08-.02.12-.03l.18-1.25h-8.22s-1.63.01-1.63.01l-.44-3.63-.19-1.59-.5-4.1-.67.26-.15,3.85-.31,8.09-.18,4.6v.11s4.07-1.06,4.07-1.06l1.09-.28c.9-.24,2.01-.46,3.09-.39.24.02.48.05.72.1l.12-.95.18-1.4c.01-.08.03-.16.05-.23.18-.78.73-1.42,1.5-1.69l1.19-.42Z"/><path class="cls-1" d="m24.69,25.62l-1.68.67-.17-.13-.03-.02-1.28-1.01.34-2.33.21-1.43-1.54.61-.39.15s0,0,0,0c-.28.12-.55.46-.59.76l-.44,2.99c-.02.17.01.37.1.55.07.14.16.27.26.36l.3.23.14.11,1.24.98.12.1-.07.45-.03.2-.22,1.52-.27,1.85-.42,2.88.05.1,3-1.01.02-.13.11-.73.69-4.7.58-.23.05-.02,1.5-.6c.29-.11.56-.46.6-.76l.27-1.84.17-1.14c.04-.31-.12-.71-.36-.9l-1.63-1.29-.31,2.13-.24,1.63-.07.03Z"/><path class="cls-1" d="m14.95,44.12c.27-.13.51-.27.72-.42.24-.17.45-.34.62-.52.27-.28.45-.58.51-.88.14-.66-.25-1.3-.6-1.73-.12-.13-.26-.23-.42-.32-.27-.16-.59-.25-.96-.3-.69-.08-1.57.02-2.68.31l-1.56.41-4.3,1.12-1.72.45.36-9.42.37-9.42-1.04.31c-1.08.33-1.88,1.24-2.07,2.35l-2.19,13.22c3.54,3.16,8.07,5.23,13.07,5.7l1.75-.79s.09-.05.13-.07"/><path class="cls-1" d="m24.99,35.92c0-.05-.03-.09-.05-.12-.03-.04-.06-.06-.08-.08-.04-.03-.13-.06-.24-.02l-.09.03-.53.18-.32.11-.66.22-2.84.96c-.06.02-.13.03-.2.04-.02,0-.03,0-.05,0-.34.02-.67-.15-.84-.45,0-.01-.01-.02-.02-.03l-.22-.41-.46-.85-.05.02-.39.13c-.18.06-.3.22-.33.4l-.08.64-.22,1.76c-.04.32.06.64.27.88l1.54,1.74c.21.23.5.35.79.35.16,0,.32-.04.47-.12l1.71-.89,1.56-.82.58-.3.18-.09.57-.3c.31-.16.47-.5.41-.84l-.4-2.13Z"/></g></svg>