<?xml version="1.0" encoding="utf-8"?>
<!-- Generator: Adobe Illustrator 26.2.1, SVG Export Plug-In . SVG Version: 6.00 Build 0)  -->
<svg version="1.1" id="Layer_2_00000163792736130674685970000002665662205417257395_"
	 xmlns="http://www.w3.org/2000/svg" xmlns:xlink="http://www.w3.org/1999/xlink" x="0px" y="0px" viewBox="0 0 19.89 34.01"
	 style="enable-background:new 0 0 19.89 34.01;" xml:space="preserve">
<style type="text/css">
	.st0{fill:#E1001B;}
</style>
<g id="Layer_1-2">
	<path class="st0" d="M3.54,27.35l-0.85,6.07c-0.05,0.31,0.19,0.59,0.5,0.59h4.59c0.27,0,0.5-0.2,0.55-0.47l0.66-4.08h1.89
		l0.67,4.12c0.04,0.24,0.25,0.42,0.5,0.42h4.59c0.33,0,0.59-0.3,0.53-0.63l-0.84-6.03H3.54V27.35z M19.82,21.28l-0.29-0.64
		l-0.02-0.05l-3.28-7.16l-0.02-0.05l-0.61-1.33c-0.1-0.22-0.29-0.38-0.52-0.44l-2.33-0.6c0.55-0.53,0.84-1.23,0.98-1.98
		c0.14-0.67,0.17-1.37,0.16-2.01h1.34c0.24,0,0.45-0.12,0.58-0.3c0.01-0.02,0.02-0.03,0.03-0.05c0.06-0.1,0.09-0.22,0.09-0.34
		c0-0.39-0.31-0.7-0.7-0.7h-0.66c0-0.9-0.32-1.74-0.85-2.43c0.24-0.27,0.24-0.69-0.03-0.96c-0.14-0.14-0.31-0.2-0.49-0.2
		s-0.36,0.07-0.49,0.2c-0.59-0.41-1.29-0.68-2.05-0.79V0.7c0-0.39-0.31-0.7-0.7-0.7s-0.7,0.31-0.7,0.7v0.75
		C8.61,1.54,8,1.77,7.47,2.09C7.38,2.14,7.3,2.19,7.21,2.25c-0.14-0.14-0.31-0.2-0.49-0.2c0,0-0.02,0-0.03,0
		c-0.17,0-0.33,0.07-0.46,0.2C6.16,2.32,6.11,2.41,6.07,2.5C5.98,2.73,6.02,3,6.19,3.19c0,0,0,0.01,0.01,0.02l0,0
		C5.68,3.89,5.37,4.73,5.36,5.63H4.7C4.31,5.63,4,5.94,4,6.33c0,0.13,0.04,0.24,0.09,0.34C4.1,6.69,4.11,6.7,4.12,6.72
		c0.13,0.18,0.34,0.3,0.58,0.3h1.32C6.01,8.36,6.09,10,7.14,11.01l-2.3,0.6c-0.23,0.06-0.42,0.22-0.52,0.44l-0.61,1.33l-0.02,0.05
		l-3.31,7.16l-0.02,0.05l-0.28,0.61c-0.17,0.38-0.03,0.83,0.33,1.04l3.74,0.76L3.56,27.3v0.05h12.77V27.3l-0.6-4.23l3.79-0.79
		c0.35-0.2,0.49-0.64,0.32-1"/>
</g>
</svg>
