<?xml version="1.0" encoding="UTF-8"?><svg id="Layer_2" xmlns="http://www.w3.org/2000/svg" viewBox="0 0 19.89 34.01"><defs><style>.cls-1{fill:#b2b2b2;}</style></defs><g id="Layer_1-2"><path class="cls-1" d="m3.54,27.35l-.85,6.07c-.05.31.19.59.5.59h4.59c.27,0,.5-.2.55-.47l.66-4.08h1.89l.67,4.12c.04.24.25.42.5.42h4.59c.33,0,.59-.3.53-.63l-.84-6.03H3.54Zm16.28-6.07l-.29-.64-.02-.05-3.28-7.16-.02-.05-.61-1.33c-.1-.22-.29-.38-.52-.44l-2.33-.6c.55-.53.84-1.23.98-1.98.14-.67.17-1.37.16-2.01h1.34c.24,0,.45-.12.58-.3.01-.02.02-.03.03-.05.06-.1.09-.22.09-.34,0-.39-.31-.7-.7-.7h-.66c0-.9-.32-1.74-.85-2.43.24-.27.24-.69-.03-.96-.14-.14-.31-.2-.49-.2s-.36.07-.49.2c-.59-.41-1.29-.68-2.05-.79v-.75c0-.39-.31-.7-.7-.7s-.7.31-.7.7v.75c-.65.09-1.26.32-1.79.64-.09.05-.17.1-.26.16-.14-.14-.31-.2-.49-.2,0,0-.02,0-.03,0-.17,0-.33.07-.46.2-.07.07-.12.16-.16.25-.09.23-.05.5.12.69,0,0,0,.01.01.02,0,0,0,0,0,0-.52.68-.83,1.52-.84,2.42h-.66c-.39,0-.7.31-.7.7,0,.13.04.24.09.34.01.02.02.03.03.05.13.18.34.3.58.3h1.32c-.01,1.34.07,2.98,1.12,3.99l-2.3.6c-.23.06-.42.22-.52.44l-.61,1.33-.02.05L.38,20.59l-.02.05-.28.61c-.17.38-.03.83.33,1.04l3.74.76-.59,4.25v.05s12.77,0,12.77,0v-.05s-.6-4.23-.6-4.23l3.79-.79c.35-.2.49-.64.32-1"/></g></svg>