<?xml version="1.0" encoding="utf-8"?>
<!-- Generator: Adobe Illustrator 26.2.1, SVG Export Plug-In . SVG Version: 6.00 Build 0)  -->
<svg version="1.1" id="Layer_1" xmlns="http://www.w3.org/2000/svg" xmlns:xlink="http://www.w3.org/1999/xlink" x="0px" y="0px"
	 viewBox="0 0 24 24" style="enable-background:new 0 0 24 24;" xml:space="preserve">
<style type="text/css">
	.st0{fill:#FCB040;}
	.st1{fill:#DFDEDB;}
	.st2{fill:#1180C3;}
</style>
<g>
	<path class="st0" d="M20.46,25H4.54c-0.98,0-1.78-0.8-1.78-1.78V1.78C2.76,0.8,3.56,0,4.54,0h15.92c0.98,0,1.78,0.8,1.78,1.78
		v21.44C22.24,24.2,21.44,25,20.46,25z"/>
	<path class="st1" d="M19.72,8.5H5.28c-0.45,0-0.81-0.36-0.81-0.81V3.35c0-0.45,0.36-0.81,0.81-0.81h14.45
		c0.45,0,0.81,0.36,0.81,0.81v4.34C20.53,8.13,20.17,8.5,19.72,8.5z"/>
	<circle class="st1" cx="6.23" cy="12.34" r="1.76"/>
	<circle class="st1" cx="12.28" cy="12.5" r="1.76"/>
	<circle class="st1" cx="18.33" cy="12.5" r="1.76"/>
	<circle class="st1" cx="6.23" cy="17.13" r="1.76"/>
	<circle class="st1" cx="12.28" cy="17.29" r="1.76"/>
	<circle class="st1" cx="6.23" cy="22.07" r="1.76"/>
	<circle class="st1" cx="12.28" cy="22.23" r="1.76"/>
	<path class="st1" d="M18.33,15.53c-0.97,0-1.76,0.79-1.76,1.76v4.94c0,0.97,0.79,1.76,1.76,1.76s1.76-0.79,1.76-1.76v-4.94
		C20.09,16.31,19.3,15.53,18.33,15.53z"/>
</g>
<polygon class="st2" points="19.65,4.18 19.49,4.75 18.81,4.75 18.7,5.15 19.38,5.15 19.2,5.83 18.51,5.83 18.11,7.32 17.97,7.84 
	17.16,7.84 16.58,5.83 16.32,5.83 15.9,5.83 15.7,5.15 16.32,5.15 16.39,5.15 16.32,4.91 16.27,4.75 15.59,4.75 15.39,4.07 
	16.07,4.07 16.08,4.07 15.83,3.19 16.32,3.19 16.54,3.19 16.79,4.07 18.29,4.07 18.52,3.19 19.02,3.19 19.23,3.19 19.17,3.43 
	18.99,4.07 19.58,4.07 19.68,4.07 "/>
</svg>
