<?xml version="1.0" encoding="utf-8"?>
<!-- Generator: Adobe Illustrator 26.2.1, SVG Export Plug-In . SVG Version: 6.00 Build 0)  -->
<svg version="1.1" id="Layer_1" xmlns="http://www.w3.org/2000/svg" xmlns:xlink="http://www.w3.org/1999/xlink" x="0px" y="0px"
	 viewBox="0 0 200 200" style="enable-background:new 0 0 200 200;" xml:space="preserve">
<style type="text/css">
	.st0{fill:#FCB040;}
	.st1{fill:#DFDEDB;}
	.st2{fill:#1180C3;}
</style>
<g>
	<path class="st0" d="M379.83,456H89.49c-17.95,0-32.51-14.55-32.51-32.51V32.51C56.98,14.55,71.53,0,89.49,0h290.34
		c17.95,0,32.51,14.55,32.51,32.51v390.98C412.34,441.45,397.79,456,379.83,456z"/>
	<path class="st1" d="M366.4,154.97H102.92c-8.15,0-14.77-6.61-14.77-14.77V61.08c0-8.15,6.61-14.77,14.77-14.77H366.4
		c8.15,0,14.77,6.61,14.77,14.77v79.13C381.17,148.36,374.56,154.97,366.4,154.97z"/>
	<circle class="st1" cx="120.21" cy="225.15" r="32.06"/>
	<circle class="st1" cx="230.61" cy="228" r="32.06"/>
	<circle class="st1" cx="341" cy="228" r="32.06"/>
	<circle class="st1" cx="120.21" cy="312.44" r="32.06"/>
	<circle class="st1" cx="230.61" cy="315.28" r="32.06"/>
	<circle class="st1" cx="120.21" cy="402.56" r="32.06"/>
	<circle class="st1" cx="230.61" cy="405.41" r="32.06"/>
	<path class="st1" d="M341,283.22c-17.71,0-32.06,14.35-32.06,32.06v90.13c0,17.71,14.35,32.06,32.06,32.06s32.06-14.35,32.06-32.06
		v-90.13C373.06,297.57,358.71,283.22,341,283.22z"/>
</g>
<polygon class="st2" points="364.99,76.31 362.16,86.73 349.7,86.73 347.75,93.91 360.2,93.91 356.82,106.36 344.37,106.36 
	336.99,133.53 334.39,143.05 319.65,143.05 309.12,106.36 304.3,106.36 296.67,106.36 293.1,93.91 304.3,93.91 305.55,93.91 
	304.3,89.58 303.48,86.73 291.03,86.73 287.46,74.27 299.72,74.27 299.91,74.27 295.31,58.23 304.3,58.23 308.27,58.23 
	312.87,74.27 340.18,74.27 344.54,58.23 353.62,58.23 357.45,58.23 356.29,62.48 353.08,74.27 363.71,74.27 365.54,74.27 "/>
</svg>
